<?xml version="1.0" encoding="utf-8"?>
<!-- Generator: Adobe Illustrator 24.1.1, SVG Export Plug-In . SVG Version: 6.00 Build 0)  -->
<svg version="1.1" id="Layer_1" xmlns="http://www.w3.org/2000/svg" xmlns:xlink="http://www.w3.org/1999/xlink" x="0px" y="0px"
	 viewBox="0 0 100 100" enable-background="new 0 0 100 100" xml:space="preserve">
<g>
	
		<radialGradient id="SVGID_1_" cx="-1906.1201" cy="28.3713" r="65.8128" gradientTransform="matrix(1 0 0 1 1948.2391 0)" gradientUnits="userSpaceOnUse">
		<stop  offset="0" style="stop-color:#FCFCFC"/>
		<stop  offset="0.1559" style="stop-color:#F1EDF5"/>
		<stop  offset="1" style="stop-color:#9FA1A6"/>
	</radialGradient>
	<path fill="url(#SVGID_1_)" d="M84.7,50.1c0,19.1-15.5,34.7-34.7,34.7c-19.1,0-34.7-15.5-34.7-34.7C15.4,31,30.9,15.4,50,15.4
		C69.2,15.4,84.7,31,84.7,50.1z"/>
	<path opacity="0.5" fill="#FFFFFF" d="M45,39.5c0,17.7,13.2,32.2,30.3,34.4c0.8-0.9,1.6-1.8,2.3-2.8c4.2-5.8,6.8-12.9,6.8-20.6
		c0-17.7-13.2-32.3-30.4-34.4C48.4,22.3,45,30.5,45,39.5z"/>
	<radialGradient id="SVGID_2_" cx="88.9243" cy="6.8381" r="58.4161" gradientUnits="userSpaceOnUse">
		<stop  offset="0" style="stop-color:#FCFCFC"/>
		<stop  offset="0.1559" style="stop-color:#ADAAB0"/>
		<stop  offset="1" style="stop-color:#6B6D70"/>
	</radialGradient>
	<path fill="url(#SVGID_2_)" d="M54.4,15.7c-5.6,6.2-9,14.3-9,23.3c0,17.7,13.2,32.3,30.4,34.4c5.6-6.2,9-14.3,9-23.3
		C84.7,32.4,71.5,17.8,54.4,15.7z"/>
	<g>
		<path fill="#B0B1B6" d="M25.8,56.2c3.3-0.3,5.6-4,5.2-8.3c-0.4-4.3-3.3-7.5-6.6-7.2c-3.3,0.3-5.6,4-5.2,8.3
			C19.6,53.3,22.6,56.5,25.8,56.2z"/>
		<path fill="#B0B1B6" d="M23,59.3c-2,1-2.4,3.9-1.1,6.5c1.3,2.6,4,3.8,6,2.8c1.9-1,2.4-3.9,1.1-6.5C27.6,59.6,24.9,58.3,23,59.3z"
			/>
		<path fill="#B0B1B6" d="M30.7,56.3c-1.2,0.6-1.4,2.3-0.7,3.8c0.8,1.5,2.4,2.2,3.5,1.6c1.2-0.6,1.4-2.3,0.7-3.8
			C33.5,56.4,31.9,55.7,30.7,56.3z"/>
		<path fill="#5D5E61" d="M82.1,51.4c-0.6-4.2-3.7-7.3-6.9-6.9c-3.2,0.5-5.4,4.3-4.8,8.5c0.6,4.2,3.7,7.3,6.9,6.8
			C80.5,59.4,82.7,55.6,82.1,51.4z"/>
		<path fill="#5D5E61" d="M77.8,41.3c1.9-1.1,2.2-4,0.8-6.5c-1.5-2.5-4.2-3.6-6.1-2.5c-1.9,1.1-2.2,4-0.8,6.5
			C73.2,41.3,75.9,42.4,77.8,41.3z"/>
		<path fill="#5D5E61" d="M70.7,40.9c-0.9-1.5-2.5-2.1-3.6-1.5c-1.1,0.7-1.3,2.4-0.5,3.9c0.9,1.5,2.5,2.1,3.6,1.5
			C71.3,44.1,71.5,42.3,70.7,40.9z"/>
	</g>
	<g>
		
			<radialGradient id="SVGID_3_" cx="275.1448" cy="-2387.1404" r="9.879" gradientTransform="matrix(1.1966 0.7767 1.0414 -1.8051 2189.7759 -4483.5698)" gradientUnits="userSpaceOnUse">
			<stop  offset="0" style="stop-color:#FFFFFF"/>
			<stop  offset="1" style="stop-color:#FFFFFF;stop-opacity:0"/>
		</radialGradient>
		<path fill="url(#SVGID_3_)" d="M44.9,46.8c5.7-9.9,5-21.3-1.5-25.5c-6.5-4.2-16.4,0.3-22.1,10.2c-5.7,9.8-5,21.3,1.5,25.5
			C29.3,61.2,39.2,56.7,44.9,46.8z"/>
		
			<radialGradient id="SVGID_4_" cx="-4316.5225" cy="4488.8452" r="9.533" gradientTransform="matrix(1.4619 -0.6688 2.230000e-02 -0.7611 6276.8906 600.565)" gradientUnits="userSpaceOnUse">
			<stop  offset="0" style="stop-color:#FFFFFF"/>
			<stop  offset="1" style="stop-color:#FFFFFF;stop-opacity:0"/>
		</radialGradient>
		<path opacity="0.4" fill="url(#SVGID_4_)" d="M80.6,64.6c0.1-4-6-4.4-13.7-0.9c-7.7,3.5-14,9.6-14.1,13.6c-0.1,4,6,4.4,13.7,0.9
			C74.1,74.7,80.5,68.6,80.6,64.6z"/>
	</g>
</g>
</svg>
