<?xml version="1.0" encoding="utf-8"?>
<!-- Generator: Adobe Illustrator 24.1.1, SVG Export Plug-In . SVG Version: 6.00 Build 0)  -->
<svg version="1.1" id="Layer_1" xmlns="http://www.w3.org/2000/svg" xmlns:xlink="http://www.w3.org/1999/xlink" x="0px" y="0px"
	 viewBox="0 0 100 100" enable-background="new 0 0 100 100" xml:space="preserve">
<g>
	<g>
		<g>
			
				<radialGradient id="SVGID_1_" cx="-125.1412" cy="26.2128" r="44.7613" gradientTransform="matrix(-1 0 0 1 -74.3271 0)" gradientUnits="userSpaceOnUse">
				<stop  offset="0" style="stop-color:#FFF8C7"/>
				<stop  offset="0.1559" style="stop-color:#FFE436"/>
				<stop  offset="1" style="stop-color:#FE761C"/>
			</radialGradient>
			<path fill="url(#SVGID_1_)" d="M21.8,41c0,13,10.6,23.6,23.6,23.6C58.4,64.6,69,54,69,41c0-13-10.6-23.6-23.6-23.6
				C32.4,17.4,21.8,28,21.8,41z"/>
			<g>
				
					<radialGradient id="SVGID_2_" cx="1095.8539" cy="-1871.5817" r="6.719" gradientTransform="matrix(-0.8392 1.1536 -1.6186 -1.3126 -2055.0493 -3689.9971)" gradientUnits="userSpaceOnUse">
					<stop  offset="0" style="stop-color:#FFFFFF"/>
					<stop  offset="1" style="stop-color:#FFFFFF;stop-opacity:0"/>
				</radialGradient>
				<path fill="url(#SVGID_2_)" d="M49,38.6c-6-4.9-8.4-12.3-5.2-16.6c3.1-4.3,10.5-3.8,16.5,1.1c6,4.9,8.3,12.3,5.2,16.6
					C62.4,43.9,55,43.4,49,38.6z"/>
				
					<radialGradient id="SVGID_3_" cx="-2981.5549" cy="2926.4993" r="6.4836" gradientTransform="matrix(-1.1717 -1.1007 0.222 -0.7283 -4110.9922 -1097.0844)" gradientUnits="userSpaceOnUse">
					<stop  offset="0" style="stop-color:#FFFFFF"/>
					<stop  offset="1" style="stop-color:#FFFFFF;stop-opacity:0"/>
				</radialGradient>
				<path opacity="0.4" fill="url(#SVGID_3_)" d="M24.6,46.2c0.8-2.6,4.8-1.5,9,2.4c4.2,3.9,7,9.2,6.2,11.9c-0.8,2.6-4.8,1.5-9-2.4
					C26.5,54.1,23.8,48.8,24.6,46.2z"/>
			</g>
			<radialGradient id="SVGID_4_" cx="45.9422" cy="4.9729" r="7.7887" gradientUnits="userSpaceOnUse">
				<stop  offset="0" style="stop-color:#FFF8C7"/>
				<stop  offset="0.1559" style="stop-color:#FFE436"/>
				<stop  offset="1" style="stop-color:#FE761C"/>
			</radialGradient>
			<path fill="url(#SVGID_4_)" d="M48.3,10.4c0,1.6-1.3,2.9-2.9,2.9l0,0c-1.6,0-2.9-1.3-2.9-2.9V6.4c0-1.6,1.3-2.9,2.9-2.9l0,0
				c1.6,0,2.9,1.3,2.9,2.9V10.4z"/>
			
				<radialGradient id="SVGID_5_" cx="453.8536" cy="-232.5059" r="7.7886" gradientTransform="matrix(0.7071 -0.7071 0.7071 0.7071 -136.198 500.4805)" gradientUnits="userSpaceOnUse">
				<stop  offset="0" style="stop-color:#FFF8C7"/>
				<stop  offset="0.1559" style="stop-color:#FFE436"/>
				<stop  offset="1" style="stop-color:#FE761C"/>
			</radialGradient>
			<path fill="url(#SVGID_5_)" d="M25.8,17.4c1.1,1.1,1.1,2.9,0,4l0,0c-1.1,1.1-2.9,1.1-4,0l-2.9-2.9c-1.1-1.1-1.1-2.9,0-4l0,0
				c1.1-1.1,2.9-1.1,4,0L25.8,17.4z"/>
			
				<radialGradient id="SVGID_6_" cx="910.1246" cy="-112.1799" r="7.7887" gradientTransform="matrix(0 -1 1 0 121.5769 950.6016)" gradientUnits="userSpaceOnUse">
				<stop  offset="0" style="stop-color:#FFF8C7"/>
				<stop  offset="0.1559" style="stop-color:#FFE436"/>
				<stop  offset="1" style="stop-color:#FE761C"/>
			</radialGradient>
			<path fill="url(#SVGID_6_)" d="M14.9,38.1c1.6,0,2.9,1.3,2.9,2.9l0,0c0,1.6-1.3,2.9-2.9,2.9h-4.1C9.2,43.9,8,42.6,8,41l0,0
				c0-1.6,1.3-2.9,2.9-2.9H14.9z"/>
			
				<radialGradient id="SVGID_7_" cx="1147.7673" cy="295.7292" r="7.7885" gradientTransform="matrix(-0.7071 -0.7071 0.7071 -0.7071 622.0566 1086.7986)" gradientUnits="userSpaceOnUse">
				<stop  offset="0" style="stop-color:#FFF8C7"/>
				<stop  offset="0.1559" style="stop-color:#FFE436"/>
				<stop  offset="1" style="stop-color:#FE761C"/>
			</radialGradient>
			<path fill="url(#SVGID_7_)" d="M21.8,60.6c1.1-1.1,2.9-1.1,4,0l0,0c1.1,1.1,1.1,2.9,0,4L23,67.5c-1.1,1.1-2.9,1.1-4,0l0,0
				c-1.1-1.1-1.1-2.9,0-4L21.8,60.6z"/>
			
				<radialGradient id="SVGID_8_" cx="1027.2748" cy="752.0038" r="7.7889" gradientTransform="matrix(-1 0 0 -1 1072.1758 829.0254)" gradientUnits="userSpaceOnUse">
				<stop  offset="0" style="stop-color:#FFF8C7"/>
				<stop  offset="0.1559" style="stop-color:#FFE436"/>
				<stop  offset="1" style="stop-color:#FE761C"/>
			</radialGradient>
			<path fill="url(#SVGID_8_)" d="M42.6,71.5c0-1.6,1.3-2.9,2.9-2.9l0,0c1.6,0,2.9,1.3,2.9,2.9l0,4.1c0,1.6-1.3,2.9-2.9,2.9l0,0
				c-1.6,0-2.9-1.3-2.9-2.9L42.6,71.5z"/>
			
				<radialGradient id="SVGID_9_" cx="619.53" cy="989.6472" r="7.7887" gradientTransform="matrix(-0.7071 0.7071 -0.7071 -0.7071 1208.3767 328.5479)" gradientUnits="userSpaceOnUse">
				<stop  offset="0" style="stop-color:#FFF8C7"/>
				<stop  offset="0.1559" style="stop-color:#FFE436"/>
				<stop  offset="1" style="stop-color:#FE761C"/>
			</radialGradient>
			<path fill="url(#SVGID_9_)" d="M65,64.6c-1.1-1.1-1.1-2.9,0-4l0,0c1.1-1.1,2.9-1.1,4,0l2.9,2.9c1.1,1.1,1.1,2.9,0,4l0,0
				c-1.1,1.1-2.9,1.1-4,0L65,64.6z"/>
			
				<radialGradient id="SVGID_10_" cx="163.0906" cy="869.1586" r="7.788" gradientTransform="matrix(0 1 -1 0 950.6055 -121.5742)" gradientUnits="userSpaceOnUse">
				<stop  offset="0" style="stop-color:#FFF8C7"/>
				<stop  offset="0.1559" style="stop-color:#FFE436"/>
				<stop  offset="1" style="stop-color:#FE761C"/>
			</radialGradient>
			<path fill="url(#SVGID_10_)" d="M76,43.9c-1.6,0-2.9-1.3-2.9-2.9l0,0c0-1.6,1.3-2.9,2.9-2.9H80c1.6,0,2.9,1.3,2.9,2.9l0,0
				c0,1.6-1.3,2.9-2.9,2.9H76z"/>
			
				<radialGradient id="SVGID_11_" cx="-74.3864" cy="461.4121" r="7.7886" gradientTransform="matrix(0.7071 0.7071 -0.7071 0.7071 450.126 -257.7751)" gradientUnits="userSpaceOnUse">
				<stop  offset="0" style="stop-color:#FFF8C7"/>
				<stop  offset="0.1559" style="stop-color:#FFE436"/>
				<stop  offset="1" style="stop-color:#FE761C"/>
			</radialGradient>
			<path fill="url(#SVGID_11_)" d="M69,21.4c-1.1,1.1-2.9,1.1-4,0l0,0c-1.1-1.1-1.1-2.9,0-4l2.9-2.9c1.1-1.1,2.9-1.1,4,0l0,0
				c1.1,1.1,1.1,2.9,0,4L69,21.4z"/>
		</g>
		<g>
			
				<radialGradient id="SVGID_12_" cx="1366.5103" cy="50.3122" r="40.5126" gradientTransform="matrix(-1 0 0 1 1385.1875 0)" gradientUnits="userSpaceOnUse">
				<stop  offset="0" style="stop-color:#FFFFFF"/>
				<stop  offset="0.198" style="stop-color:#D9F7FF"/>
				<stop  offset="1" style="stop-color:#89C0F5"/>
			</radialGradient>
			<path fill="url(#SVGID_12_)" d="M24.8,45.8c7.7,0,14.1,5.3,15.9,12.5c1.4-0.7,3-1.1,4.6-1.1c5.9,0,10.6,4.8,10.6,10.6
				c0,5.9-4.8,10.6-10.6,10.6H24.8c-9,0-16.3-7.3-16.3-16.3C8.5,53.1,15.8,45.8,24.8,45.8z"/>
			<radialGradient id="SVGID_13_" cx="33.1694" cy="48.841" r="40.5348" gradientUnits="userSpaceOnUse">
				<stop  offset="0" style="stop-color:#FFE436"/>
				<stop  offset="1.982603e-02" style="stop-color:#FFDF35;stop-opacity:0.9742"/>
				<stop  offset="0.1739" style="stop-color:#FFB92C;stop-opacity:0.7739"/>
				<stop  offset="0.3276" style="stop-color:#FE9C25;stop-opacity:0.5739"/>
				<stop  offset="0.4791" style="stop-color:#FE8720;stop-opacity:0.3768"/>
				<stop  offset="0.6274" style="stop-color:#FE7A1D;stop-opacity:0.1839"/>
				<stop  offset="0.7688" style="stop-color:#FE761C;stop-opacity:0"/>
			</radialGradient>
			<path fill="url(#SVGID_13_)" d="M24.8,45.8c7.7,0,14.1,5.3,15.9,12.5c1.4-0.7,3-1.1,4.6-1.1c5.9,0,10.6,4.8,10.6,10.6
				c0,5.9-4.8,10.6-10.6,10.6H24.8c-9,0-16.3-7.3-16.3-16.3C8.5,53.1,15.8,45.8,24.8,45.8z"/>
			
				<radialGradient id="SVGID_14_" cx="529.544" cy="-2388.4319" r="4.754" gradientTransform="matrix(0.8392 1.1536 1.6186 -1.3126 3440.2368 -3689.9971)" gradientUnits="userSpaceOnUse">
				<stop  offset="0" style="stop-color:#FFFFFF"/>
				<stop  offset="1" style="stop-color:#FFFFFF;stop-opacity:0"/>
			</radialGradient>
			<path fill="url(#SVGID_14_)" d="M22.7,61.4c4.2-3.4,5.9-8.7,3.7-11.7c-2.2-3-7.4-2.7-11.7,0.8c-4.2,3.4-5.9,8.7-3.7,11.7
				C13.2,65.2,18.5,64.9,22.7,61.4z"/>
			
				<radialGradient id="SVGID_15_" cx="543.579" cy="-2381.3896" r="2.6127" gradientTransform="matrix(0.8392 1.1536 1.6186 -1.3126 3440.2368 -3689.9971)" gradientUnits="userSpaceOnUse">
				<stop  offset="0" style="stop-color:#FFFFFF"/>
				<stop  offset="1" style="stop-color:#FFFFFF;stop-opacity:0"/>
			</radialGradient>
			<path opacity="0.4" fill="url(#SVGID_15_)" d="M44.1,65.9c2.3-1.9,3.2-4.8,2-6.4c-1.2-1.7-4.1-1.5-6.4,0.4
				c-2.3,1.9-3.2,4.8-2,6.4C38.9,68,41.7,67.8,44.1,65.9z"/>
			
				<radialGradient id="SVGID_16_" cx="1508.4219" cy="114.5438" r="2.7318" gradientTransform="matrix(-0.7056 -0.4583 -1.3993 1.8312 1275.2195 554.0742)" gradientUnits="userSpaceOnUse">
				<stop  offset="0" style="stop-color:#FFFFFF"/>
				<stop  offset="1" style="stop-color:#FFFFFF;stop-opacity:0"/>
			</radialGradient>
			<path opacity="0.2" fill="url(#SVGID_16_)" d="M49.3,70c2.6-2.6,5.2-3.6,5.9-2.3c0.7,1.3-0.8,4.5-3.4,7.1
				c-2.6,2.6-5.2,3.6-5.9,2.3C45.2,75.8,46.7,72.6,49.3,70z"/>
		</g>
		<g>
			
				<radialGradient id="SVGID_17_" cx="-807.3046" cy="30.591" r="32.127" gradientTransform="matrix(1 0 0 1 891.3594 0)" gradientUnits="userSpaceOnUse">
				<stop  offset="0" style="stop-color:#FFFFFF"/>
				<stop  offset="0.198" style="stop-color:#D9F7FF"/>
				<stop  offset="1" style="stop-color:#89C0F5"/>
			</radialGradient>
			<path fill="url(#SVGID_17_)" d="M79.2,27c-6.1,0-11.2,4.2-12.6,9.9c-1.1-0.5-2.3-0.8-3.7-0.8c-4.6,0-8.4,3.8-8.4,8.4
				c0,4.6,3.8,8.4,8.4,8.4h16.2c7.1,0,12.9-5.8,12.9-12.9C92.1,32.8,86.3,27,79.2,27z"/>
			<radialGradient id="SVGID_18_" cx="56.1694" cy="37.1734" r="37.3655" gradientUnits="userSpaceOnUse">
				<stop  offset="0" style="stop-color:#FFE436"/>
				<stop  offset="1.982603e-02" style="stop-color:#FFDF35;stop-opacity:0.9742"/>
				<stop  offset="0.1739" style="stop-color:#FFB92C;stop-opacity:0.7739"/>
				<stop  offset="0.3276" style="stop-color:#FE9C25;stop-opacity:0.5739"/>
				<stop  offset="0.4791" style="stop-color:#FE8720;stop-opacity:0.3768"/>
				<stop  offset="0.6274" style="stop-color:#FE7A1D;stop-opacity:0.1839"/>
				<stop  offset="0.7688" style="stop-color:#FE761C;stop-opacity:0"/>
			</radialGradient>
			<path fill="url(#SVGID_18_)" d="M79.2,27c-6.1,0-11.2,4.2-12.6,9.9c-1.1-0.5-2.3-0.8-3.7-0.8c-4.6,0-8.4,3.8-8.4,8.4
				c0,4.6,3.8,8.4,8.4,8.4h16.2c7.1,0,12.9-5.8,12.9-12.9C92.1,32.8,86.3,27,79.2,27z"/>
			
				<radialGradient id="SVGID_19_" cx="1479.2816" cy="-1537.8275" r="3.77" gradientTransform="matrix(-0.8392 1.1536 -1.6186 -1.3126 -1163.6899 -3689.9971)" gradientUnits="userSpaceOnUse">
				<stop  offset="0" style="stop-color:#FFFFFF"/>
				<stop  offset="1" style="stop-color:#FFFFFF;stop-opacity:0"/>
			</radialGradient>
			<path fill="url(#SVGID_19_)" d="M80.9,39.4c-3.4-2.7-4.7-6.9-2.9-9.3c1.7-2.4,5.9-2.1,9.3,0.6c3.4,2.7,4.7,6.9,2.9,9.3
				C88.4,42.4,84.2,42.1,80.9,39.4z"/>
			
				<radialGradient id="SVGID_20_" cx="1490.4113" cy="-1532.2429" r="2.0721" gradientTransform="matrix(-0.8392 1.1536 -1.6186 -1.3126 -1163.6899 -3689.9971)" gradientUnits="userSpaceOnUse">
				<stop  offset="0" style="stop-color:#FFFFFF"/>
				<stop  offset="1" style="stop-color:#FFFFFF;stop-opacity:0"/>
			</radialGradient>
			<path opacity="0.4" fill="url(#SVGID_20_)" d="M63.9,43c-1.9-1.5-2.6-3.8-1.6-5.1c1-1.3,3.2-1.2,5.1,0.3c1.9,1.5,2.6,3.8,1.6,5.1
				C68,44.6,65.8,44.5,63.9,43z"/>
			
				<radialGradient id="SVGID_21_" cx="-985.0513" cy="-373.4934" r="2.1664" gradientTransform="matrix(0.7056 -0.4583 1.3993 1.8312 1276.4919 280.61)" gradientUnits="userSpaceOnUse">
				<stop  offset="0" style="stop-color:#FFFFFF"/>
				<stop  offset="1" style="stop-color:#FFFFFF;stop-opacity:0"/>
			</radialGradient>
			<path opacity="0.2" fill="url(#SVGID_21_)" d="M59.8,46.2c-2-2.1-4.1-2.9-4.7-1.8c-0.6,1.1,0.6,3.6,2.7,5.7
				c2,2.1,4.1,2.9,4.7,1.8C63,50.8,61.8,48.3,59.8,46.2z"/>
		</g>
	</g>
	<g>
		<g>
			
				<radialGradient id="SVGID_22_" cx="-247.7683" cy="10.9644" r="9.8913" gradientTransform="matrix(0.866 0.5 -0.5 0.866 241.0088 207.5015)" gradientUnits="userSpaceOnUse">
				<stop  offset="0" style="stop-color:#D4F6FF"/>
				<stop  offset="0.198" style="stop-color:#D9F7FF"/>
				<stop  offset="1" style="stop-color:#89C0F5"/>
			</radialGradient>
			<path fill="url(#SVGID_22_)" d="M26.5,94c-1.1,2-3.7,2.6-5.6,1.5c-2-1.1-2.6-3.6-1.5-5.6c1.1-2,8.2-5.9,8.2-5.9
				S27.6,92.1,26.5,94z"/>
			
				<radialGradient id="SVGID_23_" cx="1218.3661" cy="-1748.2068" r="1.5495" gradientTransform="matrix(-1.3036 0.5794 -0.7454 -1.946 306.6301 -4015.4641)" gradientUnits="userSpaceOnUse">
				<stop  offset="0" style="stop-color:#FFFFFF"/>
				<stop  offset="1" style="stop-color:#FFFFFF;stop-opacity:0"/>
			</radialGradient>
			<path fill="url(#SVGID_23_)" d="M19.5,93.4c-0.6-1.7-0.3-3.4,0.9-3.9c1.1-0.5,2.5,0.5,3.2,2.1c0.6,1.7,0.2,3.4-0.9,3.9
				C21.5,96,20.1,95,19.5,93.4z"/>
		</g>
		<g>
			
				<radialGradient id="SVGID_24_" cx="-232.7902" cy="2.3155" r="9.8913" gradientTransform="matrix(0.866 0.5 -0.5 0.866 241.0088 207.5015)" gradientUnits="userSpaceOnUse">
				<stop  offset="0" style="stop-color:#D4F6FF"/>
				<stop  offset="0.198" style="stop-color:#D9F7FF"/>
				<stop  offset="1" style="stop-color:#89C0F5"/>
			</radialGradient>
			<path fill="url(#SVGID_24_)" d="M43.8,94c-1.1,2-3.6,2.6-5.6,1.5c-2-1.1-2.6-3.6-1.5-5.6c1.1-2,8.2-5.9,8.2-5.9
				S44.9,92.1,43.8,94z"/>
			
				<radialGradient id="SVGID_25_" cx="1207.0284" cy="-1751.5824" r="1.5491" gradientTransform="matrix(-1.3036 0.5794 -0.7454 -1.946 306.6301 -4015.4641)" gradientUnits="userSpaceOnUse">
				<stop  offset="0" style="stop-color:#FFFFFF"/>
				<stop  offset="1" style="stop-color:#FFFFFF;stop-opacity:0"/>
			</radialGradient>
			<path fill="url(#SVGID_25_)" d="M36.8,93.4c-0.6-1.7-0.3-3.4,0.9-3.9c1.1-0.5,2.5,0.5,3.2,2.1c0.6,1.7,0.3,3.4-0.9,3.9
				C38.8,96,37.4,95,36.8,93.4z"/>
		</g>
		<g>
			
				<radialGradient id="SVGID_26_" cx="-217.8104" cy="-6.3331" r="9.8912" gradientTransform="matrix(0.866 0.5 -0.5 0.866 241.0088 207.5015)" gradientUnits="userSpaceOnUse">
				<stop  offset="0" style="stop-color:#D4F6FF"/>
				<stop  offset="0.198" style="stop-color:#D9F7FF"/>
				<stop  offset="1" style="stop-color:#89C0F5"/>
			</radialGradient>
			<path fill="url(#SVGID_26_)" d="M61.1,94c-1.1,2-3.6,2.6-5.6,1.5c-2-1.1-2.6-3.6-1.5-5.6c1.1-2,8.2-5.9,8.2-5.9
				S62.2,92.1,61.1,94z"/>
			
				<radialGradient id="SVGID_27_" cx="1195.6902" cy="-1754.9583" r="1.5491" gradientTransform="matrix(-1.3036 0.5794 -0.7454 -1.946 306.6301 -4015.4641)" gradientUnits="userSpaceOnUse">
				<stop  offset="0" style="stop-color:#FFFFFF"/>
				<stop  offset="1" style="stop-color:#FFFFFF;stop-opacity:0"/>
			</radialGradient>
			<path fill="url(#SVGID_27_)" d="M54.1,93.4c-0.6-1.7-0.3-3.4,0.9-3.9c1.1-0.5,2.5,0.5,3.2,2.1c0.6,1.7,0.3,3.4-0.9,3.9
				C56.1,96,54.7,95,54.1,93.4z"/>
		</g>
		<g>
			
				<radialGradient id="SVGID_28_" cx="-202.8315" cy="-14.9814" r="9.8912" gradientTransform="matrix(0.866 0.5 -0.5 0.866 241.0088 207.5015)" gradientUnits="userSpaceOnUse">
				<stop  offset="0" style="stop-color:#D4F6FF"/>
				<stop  offset="0.198" style="stop-color:#D9F7FF"/>
				<stop  offset="1" style="stop-color:#89C0F5"/>
			</radialGradient>
			<path fill="url(#SVGID_28_)" d="M78.4,94c-1.1,2-3.6,2.6-5.6,1.5c-2-1.1-2.6-3.6-1.5-5.6c1.1-2,8.2-5.9,8.2-5.9
				S79.5,92.1,78.4,94z"/>
			
				<radialGradient id="SVGID_29_" cx="1184.3527" cy="-1758.3339" r="1.5491" gradientTransform="matrix(-1.3036 0.5794 -0.7454 -1.946 306.6301 -4015.4641)" gradientUnits="userSpaceOnUse">
				<stop  offset="0" style="stop-color:#FFFFFF"/>
				<stop  offset="1" style="stop-color:#FFFFFF;stop-opacity:0"/>
			</radialGradient>
			<path fill="url(#SVGID_29_)" d="M71.4,93.4c-0.6-1.7-0.3-3.4,0.9-3.9c1.1-0.5,2.5,0.5,3.2,2.1c0.6,1.7,0.3,3.4-0.9,3.9
				C73.4,96,72,95,71.4,93.4z"/>
		</g>
	</g>
</g>
</svg>
