<?xml version="1.0" encoding="utf-8"?>
<!-- Generator: Adobe Illustrator 24.1.1, SVG Export Plug-In . SVG Version: 6.00 Build 0)  -->
<svg version="1.1" id="Layer_1" xmlns="http://www.w3.org/2000/svg" xmlns:xlink="http://www.w3.org/1999/xlink" x="0px" y="0px"
	 viewBox="0 0 100 100" enable-background="new 0 0 100 100" xml:space="preserve">
<g>
	<g>
		
			<radialGradient id="SVGID_1_" cx="-131.3037" cy="42.0215" r="27.5478" gradientTransform="matrix(-1 0 0 1 -74.3271 0)" gradientUnits="userSpaceOnUse">
			<stop  offset="0" style="stop-color:#FFF8C7"/>
			<stop  offset="0.1559" style="stop-color:#FFE436"/>
			<stop  offset="1" style="stop-color:#FE761C"/>
		</radialGradient>
		<path fill="url(#SVGID_1_)" d="M39.1,51.1c0,8,6.5,14.5,14.5,14.5s14.5-6.5,14.5-14.5c0-8-6.5-14.5-14.5-14.5S39.1,43.1,39.1,51.1
			z"/>
		<g>
			
				<radialGradient id="SVGID_2_" cx="1101.4358" cy="-1877.3711" r="4.1352" gradientTransform="matrix(-0.8392 1.1536 -1.6186 -1.3126 -2055.0493 -3689.9971)" gradientUnits="userSpaceOnUse">
				<stop  offset="0" style="stop-color:#FFFFFF"/>
				<stop  offset="1" style="stop-color:#FFFFFF;stop-opacity:0"/>
			</radialGradient>
			<path fill="url(#SVGID_2_)" d="M55.9,49.6c-3.7-3-5.1-7.6-3.2-10.2c1.9-2.6,6.5-2.3,10.2,0.7c3.7,3,5.1,7.6,3.2,10.2
				C64.1,52.9,59.6,52.6,55.9,49.6z"/>
			
				<radialGradient id="SVGID_3_" cx="-2991.4854" cy="2934.1272" r="3.9902" gradientTransform="matrix(-1.1717 -1.1007 0.222 -0.7283 -4110.9922 -1097.0844)" gradientUnits="userSpaceOnUse">
				<stop  offset="0" style="stop-color:#FFFFFF"/>
				<stop  offset="1" style="stop-color:#FFFFFF;stop-opacity:0"/>
			</radialGradient>
			<path opacity="0.4" fill="url(#SVGID_3_)" d="M40.8,54.3c0.5-1.6,3-0.9,5.6,1.5c2.6,2.4,4.3,5.7,3.8,7.3c-0.5,1.6-3,0.9-5.6-1.5
				C42,59.2,40.3,55.9,40.8,54.3z"/>
		</g>
		<radialGradient id="SVGID_4_" cx="53.9782" cy="28.9501" r="4.7938" gradientUnits="userSpaceOnUse">
			<stop  offset="0" style="stop-color:#FFF8C7"/>
			<stop  offset="0.1559" style="stop-color:#FFE436"/>
			<stop  offset="1" style="stop-color:#FE761C"/>
		</radialGradient>
		<path fill="url(#SVGID_4_)" d="M55.4,32.3c0,1-0.8,1.8-1.8,1.8l0,0c-1,0-1.8-0.8-1.8-1.8v-2.5c0-1,0.8-1.8,1.8-1.8l0,0
			c1,0,1.8,0.8,1.8,1.8V32.3z"/>
		
			<radialGradient id="SVGID_5_" cx="452.3189" cy="-205.6697" r="4.7942" gradientTransform="matrix(0.7071 -0.7071 0.7071 0.7071 -136.198 500.4805)" gradientUnits="userSpaceOnUse">
			<stop  offset="0" style="stop-color:#FFF8C7"/>
			<stop  offset="0.1559" style="stop-color:#FFE436"/>
			<stop  offset="1" style="stop-color:#FE761C"/>
		</radialGradient>
		<path fill="url(#SVGID_5_)" d="M41.6,36.6c0.7,0.7,0.7,1.8,0,2.5l0,0c-0.7,0.7-1.8,0.7-2.5,0l-1.8-1.8c-0.7-0.7-0.7-1.8,0-2.5l0,0
			c0.7-0.7,1.8-0.7,2.5,0L41.6,36.6z"/>
		
			<radialGradient id="SVGID_6_" cx="899.8008" cy="-90.0896" r="4.7932" gradientTransform="matrix(0 -1 1 0 121.5769 950.6016)" gradientUnits="userSpaceOnUse">
			<stop  offset="0" style="stop-color:#FFF8C7"/>
			<stop  offset="0.1559" style="stop-color:#FFE436"/>
			<stop  offset="1" style="stop-color:#FE761C"/>
		</radialGradient>
		<path fill="url(#SVGID_6_)" d="M34.9,49.4c1,0,1.8,0.8,1.8,1.8l0,0c0,1-0.8,1.8-1.8,1.8h-2.5c-1,0-1.8-0.8-1.8-1.8l0,0
			c0-1,0.8-1.8,1.8-1.8H34.9z"/>
		
			<radialGradient id="SVGID_7_" cx="1134.5844" cy="308.2478" r="4.7947" gradientTransform="matrix(-0.7071 -0.7071 0.7071 -0.7071 622.0566 1086.7986)" gradientUnits="userSpaceOnUse">
			<stop  offset="0" style="stop-color:#FFF8C7"/>
			<stop  offset="0.1559" style="stop-color:#FFE436"/>
			<stop  offset="1" style="stop-color:#FE761C"/>
		</radialGradient>
		<path fill="url(#SVGID_7_)" d="M39.1,63.2c0.7-0.7,1.8-0.7,2.5,0l0,0c0.7,0.7,0.7,1.8,0,2.5l-1.8,1.8c-0.7,0.7-1.8,0.7-2.5,0l0,0
			c-0.7-0.7-0.7-1.8,0-2.5L39.1,63.2z"/>
		
			<radialGradient id="SVGID_8_" cx="1018.8382" cy="755.7339" r="4.794" gradientTransform="matrix(-1 0 0 -1 1072.1758 829.0254)" gradientUnits="userSpaceOnUse">
			<stop  offset="0" style="stop-color:#FFF8C7"/>
			<stop  offset="0.1559" style="stop-color:#FFE436"/>
			<stop  offset="1" style="stop-color:#FE761C"/>
		</radialGradient>
		<path fill="url(#SVGID_8_)" d="M51.9,69.9c0-1,0.8-1.8,1.8-1.8l0,0c1,0,1.8,0.8,1.8,1.8l0,2.5c0,1-0.8,1.8-1.8,1.8l0,0
			c-1,0-1.8-0.8-1.8-1.8L51.9,69.9z"/>
		
			<radialGradient id="SVGID_9_" cx="620.6645" cy="990.5176" r="4.7941" gradientTransform="matrix(-0.7071 0.7071 -0.7071 -0.7071 1208.3767 328.5479)" gradientUnits="userSpaceOnUse">
			<stop  offset="0" style="stop-color:#FFF8C7"/>
			<stop  offset="0.1559" style="stop-color:#FFE436"/>
			<stop  offset="1" style="stop-color:#FE761C"/>
		</radialGradient>
		<path fill="url(#SVGID_9_)" d="M65.7,65.7c-0.7-0.7-0.7-1.8,0-2.5l0,0c0.7-0.7,1.8-0.7,2.5,0l1.8,1.8c0.7,0.7,0.7,1.8,0,2.5l0,0
			c-0.7,0.7-1.8,0.7-2.5,0L65.7,65.7z"/>
		
			<radialGradient id="SVGID_10_" cx="173.015" cy="874.7765" r="4.7931" gradientTransform="matrix(0 1 -1 0 950.6055 -121.5742)" gradientUnits="userSpaceOnUse">
			<stop  offset="0" style="stop-color:#FFF8C7"/>
			<stop  offset="0.1559" style="stop-color:#FFE436"/>
			<stop  offset="1" style="stop-color:#FE761C"/>
		</radialGradient>
		<path fill="url(#SVGID_10_)" d="M72.5,52.9c-1,0-1.8-0.8-1.8-1.8l0,0c0-1,0.8-1.8,1.8-1.8H75c1,0,1.8,0.8,1.8,1.8l0,0
			c0,1-0.8,1.8-1.8,1.8H72.5z"/>
		
			<radialGradient id="SVGID_11_" cx="-61.6045" cy="476.601" r="4.794" gradientTransform="matrix(0.7071 0.7071 -0.7071 0.7071 450.127 -257.7751)" gradientUnits="userSpaceOnUse">
			<stop  offset="0" style="stop-color:#FFF8C7"/>
			<stop  offset="0.1559" style="stop-color:#FFE436"/>
			<stop  offset="1" style="stop-color:#FE761C"/>
		</radialGradient>
		<path fill="url(#SVGID_11_)" d="M68.2,39.1c-0.7,0.7-1.8,0.7-2.5,0l0,0c-0.7-0.7-0.7-1.8,0-2.5l1.8-1.8c0.7-0.7,1.8-0.7,2.5,0l0,0
			c0.7,0.7,0.7,1.8,0,2.5L68.2,39.1z"/>
	</g>
	<linearGradient id="SVGID_12_" gradientUnits="userSpaceOnUse" x1="36.4341" y1="19.296" x2="36.4341" y2="45.7206">
		<stop  offset="0" style="stop-color:#ED3C28"/>
		<stop  offset="1" style="stop-color:#BF160A"/>
	</linearGradient>
	<path fill="url(#SVGID_12_)" d="M30.1,63.9c0,3.5,2.8,6.3,6.3,6.3c3.5,0,6.3-2.8,6.3-6.3V24.7c0-3.5-2.8-6.3-6.3-6.3
		c-3.5,0-6.3,2.8-6.3,6.3V63.9z"/>
	<radialGradient id="SVGID_13_" cx="32.7857" cy="76.3688" r="20.3117" gradientUnits="userSpaceOnUse">
		<stop  offset="0" style="stop-color:#FF949E"/>
		<stop  offset="0.1989" style="stop-color:#ED3C28"/>
		<stop  offset="1" style="stop-color:#BF160A"/>
	</radialGradient>
	<path fill="url(#SVGID_13_)" d="M49.5,68.8c0,7.2-5.8,13.1-13.1,13.1c-7.2,0-13.1-5.8-13.1-13.1c0-7.2,5.8-13.1,13.1-13.1
		C43.6,55.7,49.5,61.6,49.5,68.8z"/>
</g>
</svg>
