<?xml version="1.0" encoding="utf-8"?>
<!-- Generator: Adobe Illustrator 24.1.1, SVG Export Plug-In . SVG Version: 6.00 Build 0)  -->
<svg version="1.1" id="Layer_1" xmlns="http://www.w3.org/2000/svg" xmlns:xlink="http://www.w3.org/1999/xlink" x="0px" y="0px"
	 viewBox="0 0 100 100" enable-background="new 0 0 100 100" xml:space="preserve">
<g>
	<g>
		
			<radialGradient id="SVGID_1_" cx="-125.1412" cy="35.3021" r="44.7612" gradientTransform="matrix(-1 0 0 1 -74.3271 0)" gradientUnits="userSpaceOnUse">
			<stop  offset="0" style="stop-color:#FFF8C7"/>
			<stop  offset="0.1559" style="stop-color:#FFE436"/>
			<stop  offset="1" style="stop-color:#FE761C"/>
		</radialGradient>
		<path fill="url(#SVGID_1_)" d="M21.8,50.1c0,13,10.6,23.6,23.6,23.6c13,0,23.6-10.6,23.6-23.6c0-13-10.6-23.6-23.6-23.6
			C32.4,26.5,21.8,37.1,21.8,50.1z"/>
		<g>
			
				<radialGradient id="SVGID_2_" cx="1100.8094" cy="-1874.151" r="6.719" gradientTransform="matrix(-0.8392 1.1536 -1.6186 -1.3126 -2055.0493 -3689.9971)" gradientUnits="userSpaceOnUse">
				<stop  offset="0" style="stop-color:#FFFFFF"/>
				<stop  offset="1" style="stop-color:#FFFFFF;stop-opacity:0"/>
			</radialGradient>
			<path fill="url(#SVGID_2_)" d="M49,47.7c-6-4.9-8.4-12.3-5.2-16.6c3.1-4.3,10.5-3.8,16.5,1.1c6,4.9,8.3,12.3,5.2,16.6
				C62.4,53,55,52.5,49,47.7z"/>
			
				<radialGradient id="SVGID_3_" cx="-2983.3931" cy="2916.7971" r="6.4836" gradientTransform="matrix(-1.1717 -1.1007 0.222 -0.7283 -4110.9922 -1097.0844)" gradientUnits="userSpaceOnUse">
				<stop  offset="0" style="stop-color:#FFFFFF"/>
				<stop  offset="1" style="stop-color:#FFFFFF;stop-opacity:0"/>
			</radialGradient>
			<path opacity="0.4" fill="url(#SVGID_3_)" d="M24.6,55.3c0.8-2.6,4.8-1.5,9,2.4c4.2,3.9,7,9.2,6.2,11.9c-0.8,2.6-4.8,1.5-9-2.4
				C26.5,63.2,23.8,57.9,24.6,55.3z"/>
		</g>
		<radialGradient id="SVGID_4_" cx="45.9422" cy="14.0622" r="7.7887" gradientUnits="userSpaceOnUse">
			<stop  offset="0" style="stop-color:#FFF8C7"/>
			<stop  offset="0.1559" style="stop-color:#FFE436"/>
			<stop  offset="1" style="stop-color:#FE761C"/>
		</radialGradient>
		<path fill="url(#SVGID_4_)" d="M48.3,19.5c0,1.6-1.3,2.9-2.9,2.9l0,0c-1.6,0-2.9-1.3-2.9-2.9v-4.1c0-1.6,1.3-2.9,2.9-2.9l0,0
			c1.6,0,2.9,1.3,2.9,2.9V19.5z"/>
		
			<radialGradient id="SVGID_5_" cx="447.4264" cy="-226.0787" r="7.7886" gradientTransform="matrix(0.7071 -0.7071 0.7071 0.7071 -136.198 500.4805)" gradientUnits="userSpaceOnUse">
			<stop  offset="0" style="stop-color:#FFF8C7"/>
			<stop  offset="0.1559" style="stop-color:#FFE436"/>
			<stop  offset="1" style="stop-color:#FE761C"/>
		</radialGradient>
		<path fill="url(#SVGID_5_)" d="M25.8,26.5c1.1,1.1,1.1,2.9,0,4l0,0c-1.1,1.1-2.9,1.1-4,0l-2.9-2.9c-1.1-1.1-1.1-2.9,0-4l0,0
			c1.1-1.1,2.9-1.1,4,0L25.8,26.5z"/>
		
			<radialGradient id="SVGID_6_" cx="901.0353" cy="-112.1799" r="7.7886" gradientTransform="matrix(0 -1 1 0 121.5769 950.6016)" gradientUnits="userSpaceOnUse">
			<stop  offset="0" style="stop-color:#FFF8C7"/>
			<stop  offset="0.1559" style="stop-color:#FFE436"/>
			<stop  offset="1" style="stop-color:#FE761C"/>
		</radialGradient>
		<path fill="url(#SVGID_6_)" d="M14.9,47.2c1.6,0,2.9,1.3,2.9,2.9l0,0c0,1.6-1.3,2.9-2.9,2.9h-4.1c-1.6,0-2.9-1.3-2.9-2.9l0,0
			c0-1.6,1.3-2.9,2.9-2.9H14.9z"/>
		
			<radialGradient id="SVGID_7_" cx="1141.3402" cy="289.302" r="7.7885" gradientTransform="matrix(-0.7071 -0.7071 0.7071 -0.7071 622.0566 1086.7986)" gradientUnits="userSpaceOnUse">
			<stop  offset="0" style="stop-color:#FFF8C7"/>
			<stop  offset="0.1559" style="stop-color:#FFE436"/>
			<stop  offset="1" style="stop-color:#FE761C"/>
		</radialGradient>
		<path fill="url(#SVGID_7_)" d="M21.8,69.7c1.1-1.1,2.9-1.1,4,0l0,0c1.1,1.1,1.1,2.9,0,4L23,76.6c-1.1,1.1-2.9,1.1-4,0l0,0
			c-1.1-1.1-1.1-2.9,0-4L21.8,69.7z"/>
		
			<radialGradient id="SVGID_8_" cx="1027.2748" cy="742.9145" r="7.7889" gradientTransform="matrix(-1 0 0 -1 1072.1758 829.0254)" gradientUnits="userSpaceOnUse">
			<stop  offset="0" style="stop-color:#FFF8C7"/>
			<stop  offset="0.1559" style="stop-color:#FFE436"/>
			<stop  offset="1" style="stop-color:#FE761C"/>
		</radialGradient>
		<path fill="url(#SVGID_8_)" d="M42.6,80.6c0-1.6,1.3-2.9,2.9-2.9l0,0c1.6,0,2.9,1.3,2.9,2.9l0,4.1c0,1.6-1.3,2.9-2.9,2.9l0,0
			c-1.6,0-2.9-1.3-2.9-2.9L42.6,80.6z"/>
		
			<radialGradient id="SVGID_9_" cx="625.9572" cy="983.22" r="7.7886" gradientTransform="matrix(-0.7071 0.7071 -0.7071 -0.7071 1208.3767 328.5479)" gradientUnits="userSpaceOnUse">
			<stop  offset="0" style="stop-color:#FFF8C7"/>
			<stop  offset="0.1559" style="stop-color:#FFE436"/>
			<stop  offset="1" style="stop-color:#FE761C"/>
		</radialGradient>
		<path fill="url(#SVGID_9_)" d="M65,73.7c-1.1-1.1-1.1-2.9,0-4l0,0c1.1-1.1,2.9-1.1,4,0l2.9,2.9c1.1,1.1,1.1,2.9,0,4l0,0
			c-1.1,1.1-2.9,1.1-4,0L65,73.7z"/>
		
			<radialGradient id="SVGID_10_" cx="172.18" cy="869.1586" r="7.788" gradientTransform="matrix(0 1 -1 0 950.6055 -121.5742)" gradientUnits="userSpaceOnUse">
			<stop  offset="0" style="stop-color:#FFF8C7"/>
			<stop  offset="0.1559" style="stop-color:#FFE436"/>
			<stop  offset="1" style="stop-color:#FE761C"/>
		</radialGradient>
		<path fill="url(#SVGID_10_)" d="M76,52.9c-1.6,0-2.9-1.3-2.9-2.9l0,0c0-1.6,1.3-2.9,2.9-2.9H80c1.6,0,2.9,1.3,2.9,2.9l0,0
			c0,1.6-1.3,2.9-2.9,2.9H76z"/>
		
			<radialGradient id="SVGID_11_" cx="-67.9592" cy="467.8393" r="7.7886" gradientTransform="matrix(0.7071 0.7071 -0.7071 0.7071 450.126 -257.7751)" gradientUnits="userSpaceOnUse">
			<stop  offset="0" style="stop-color:#FFF8C7"/>
			<stop  offset="0.1559" style="stop-color:#FFE436"/>
			<stop  offset="1" style="stop-color:#FE761C"/>
		</radialGradient>
		<path fill="url(#SVGID_11_)" d="M69,30.5c-1.1,1.1-2.9,1.1-4,0l0,0c-1.1-1.1-1.1-2.9,0-4l2.9-2.9c1.1-1.1,2.9-1.1,4,0l0,0
			c1.1,1.1,1.1,2.9,0,4L69,30.5z"/>
	</g>
	<g>
		
			<radialGradient id="SVGID_12_" cx="1366.5103" cy="59.4016" r="40.5127" gradientTransform="matrix(-1 0 0 1 1385.1875 0)" gradientUnits="userSpaceOnUse">
			<stop  offset="0" style="stop-color:#FFFFFF"/>
			<stop  offset="0.198" style="stop-color:#D9F7FF"/>
			<stop  offset="1" style="stop-color:#89C0F5"/>
		</radialGradient>
		<path fill="url(#SVGID_12_)" d="M24.8,54.9c7.7,0,14.1,5.3,15.9,12.5c1.4-0.7,3-1.1,4.6-1.1c5.9,0,10.6,4.8,10.6,10.6
			c0,5.9-4.8,10.6-10.6,10.6H24.8c-9,0-16.3-7.3-16.3-16.3C8.5,62.2,15.8,54.9,24.8,54.9z"/>
		<radialGradient id="SVGID_13_" cx="31.8022" cy="59.1051" r="34.6044" gradientUnits="userSpaceOnUse">
			<stop  offset="0" style="stop-color:#FFE436"/>
			<stop  offset="1.982603e-02" style="stop-color:#FFDF35;stop-opacity:0.9742"/>
			<stop  offset="0.1739" style="stop-color:#FFB92C;stop-opacity:0.7739"/>
			<stop  offset="0.3276" style="stop-color:#FE9C25;stop-opacity:0.5739"/>
			<stop  offset="0.4791" style="stop-color:#FE8720;stop-opacity:0.3768"/>
			<stop  offset="0.6274" style="stop-color:#FE7A1D;stop-opacity:0.1839"/>
			<stop  offset="0.7688" style="stop-color:#FE761C;stop-opacity:0"/>
		</radialGradient>
		<path fill="url(#SVGID_13_)" d="M24.8,54.9c7.7,0,14.1,5.3,15.9,12.5c1.4-0.7,3-1.1,4.6-1.1c5.9,0,10.6,4.8,10.6,10.6
			c0,5.9-4.8,10.6-10.6,10.6H24.8c-9,0-16.3-7.3-16.3-16.3C8.5,62.2,15.8,54.9,24.8,54.9z"/>
		
			<radialGradient id="SVGID_14_" cx="534.4996" cy="-2391.0012" r="4.754" gradientTransform="matrix(0.8392 1.1536 1.6186 -1.3126 3440.2368 -3689.9971)" gradientUnits="userSpaceOnUse">
			<stop  offset="0" style="stop-color:#FFFFFF"/>
			<stop  offset="1" style="stop-color:#FFFFFF;stop-opacity:0"/>
		</radialGradient>
		<path fill="url(#SVGID_14_)" d="M22.7,70.5c4.2-3.4,5.9-8.7,3.7-11.7c-2.2-3-7.4-2.7-11.7,0.8C10.5,63,8.8,68.2,11,71.3
			C13.2,74.3,18.5,74,22.7,70.5z"/>
		
			<radialGradient id="SVGID_15_" cx="548.5347" cy="-2383.959" r="2.6127" gradientTransform="matrix(0.8392 1.1536 1.6186 -1.3126 3440.2368 -3689.9971)" gradientUnits="userSpaceOnUse">
			<stop  offset="0" style="stop-color:#FFFFFF"/>
			<stop  offset="1" style="stop-color:#FFFFFF;stop-opacity:0"/>
		</radialGradient>
		<path opacity="0.4" fill="url(#SVGID_15_)" d="M44.1,75c2.3-1.9,3.2-4.8,2-6.4c-1.2-1.7-4.1-1.5-6.4,0.4c-2.3,1.9-3.2,4.8-2,6.4
			C38.9,77.1,41.7,76.9,44.1,75z"/>
		
			<radialGradient id="SVGID_16_" cx="1506.684" cy="126.098" r="2.7318" gradientTransform="matrix(-0.7056 -0.4583 -1.3993 1.8312 1290.1604 541.209)" gradientUnits="userSpaceOnUse">
			<stop  offset="0" style="stop-color:#FFFFFF"/>
			<stop  offset="1" style="stop-color:#FFFFFF;stop-opacity:0"/>
		</radialGradient>
		<path opacity="0.2" fill="url(#SVGID_16_)" d="M49.3,79.1c2.6-2.6,5.2-3.6,5.9-2.3c0.7,1.3-0.8,4.5-3.4,7.1
			c-2.6,2.6-5.2,3.6-5.9,2.3C45.2,84.9,46.7,81.7,49.3,79.1z"/>
	</g>
	<g>
		
			<radialGradient id="SVGID_17_" cx="-807.3046" cy="39.6804" r="32.127" gradientTransform="matrix(1 0 0 1 891.3594 0)" gradientUnits="userSpaceOnUse">
			<stop  offset="0" style="stop-color:#FFFFFF"/>
			<stop  offset="0.198" style="stop-color:#D9F7FF"/>
			<stop  offset="1" style="stop-color:#89C0F5"/>
		</radialGradient>
		<path fill="url(#SVGID_17_)" d="M79.2,36.1c-6.1,0-11.2,4.2-12.6,9.9c-1.1-0.5-2.3-0.8-3.7-0.8c-4.6,0-8.4,3.8-8.4,8.4
			S58.3,62,63,62h16.2c7.1,0,12.9-5.8,12.9-12.9C92.1,41.9,86.3,36.1,79.2,36.1z"/>
		<radialGradient id="SVGID_18_" cx="52.8022" cy="49.7716" r="43.0714" gradientUnits="userSpaceOnUse">
			<stop  offset="0" style="stop-color:#FFE436"/>
			<stop  offset="1.982603e-02" style="stop-color:#FFDF35;stop-opacity:0.9742"/>
			<stop  offset="0.1739" style="stop-color:#FFB92C;stop-opacity:0.7739"/>
			<stop  offset="0.3276" style="stop-color:#FE9C25;stop-opacity:0.5739"/>
			<stop  offset="0.4791" style="stop-color:#FE8720;stop-opacity:0.3768"/>
			<stop  offset="0.6274" style="stop-color:#FE7A1D;stop-opacity:0.1839"/>
			<stop  offset="0.7688" style="stop-color:#FE761C;stop-opacity:0"/>
		</radialGradient>
		<path fill="url(#SVGID_18_)" d="M79.2,36.1c-6.1,0-11.2,4.2-12.6,9.9c-1.1-0.5-2.3-0.8-3.7-0.8c-4.6,0-8.4,3.8-8.4,8.4
			S58.3,62,63,62h16.2c7.1,0,12.9-5.8,12.9-12.9C92.1,41.9,86.3,36.1,79.2,36.1z"/>
		
			<radialGradient id="SVGID_19_" cx="1484.2372" cy="-1540.3969" r="3.77" gradientTransform="matrix(-0.8392 1.1536 -1.6186 -1.3126 -1163.6899 -3689.9971)" gradientUnits="userSpaceOnUse">
			<stop  offset="0" style="stop-color:#FFFFFF"/>
			<stop  offset="1" style="stop-color:#FFFFFF;stop-opacity:0"/>
		</radialGradient>
		<path fill="url(#SVGID_19_)" d="M80.9,48.5c-3.4-2.7-4.7-6.9-2.9-9.3c1.7-2.4,5.9-2.1,9.3,0.6c3.4,2.7,4.7,6.9,2.9,9.3
			C88.4,51.5,84.2,51.2,80.9,48.5z"/>
		
			<radialGradient id="SVGID_20_" cx="1495.3668" cy="-1534.8123" r="2.0721" gradientTransform="matrix(-0.8392 1.1536 -1.6186 -1.3126 -1163.6899 -3689.9971)" gradientUnits="userSpaceOnUse">
			<stop  offset="0" style="stop-color:#FFFFFF"/>
			<stop  offset="1" style="stop-color:#FFFFFF;stop-opacity:0"/>
		</radialGradient>
		<path opacity="0.4" fill="url(#SVGID_20_)" d="M63.9,52c-1.9-1.5-2.6-3.8-1.6-5.1c1-1.3,3.2-1.2,5.1,0.3c1.9,1.5,2.6,3.8,1.6,5.1
			C68,53.7,65.8,53.5,63.9,52z"/>
		
			<radialGradient id="SVGID_21_" cx="-986.7892" cy="-361.9392" r="2.1664" gradientTransform="matrix(0.7056 -0.4583 1.3993 1.8312 1261.551 267.7449)" gradientUnits="userSpaceOnUse">
			<stop  offset="0" style="stop-color:#FFFFFF"/>
			<stop  offset="1" style="stop-color:#FFFFFF;stop-opacity:0"/>
		</radialGradient>
		<path opacity="0.2" fill="url(#SVGID_21_)" d="M59.8,55.3c-2-2.1-4.1-2.9-4.7-1.8c-0.6,1.1,0.6,3.6,2.7,5.7c2,2.1,4.1,2.9,4.7,1.8
			C63,59.9,61.8,57.4,59.8,55.3z"/>
	</g>
</g>
</svg>
