<?xml version="1.0" encoding="utf-8"?>
<!-- Generator: Adobe Illustrator 24.1.1, SVG Export Plug-In . SVG Version: 6.00 Build 0)  -->
<svg version="1.1" id="Layer_1" xmlns="http://www.w3.org/2000/svg" xmlns:xlink="http://www.w3.org/1999/xlink" x="0px" y="0px"
	 viewBox="0 0 100 100" enable-background="new 0 0 100 100" xml:space="preserve">
<g>
	<g>
		
			<radialGradient id="SVGID_1_" cx="-142.3496" cy="27.7768" r="51.9996" gradientTransform="matrix(-1 0 0 1 -74.3271 0)" gradientUnits="userSpaceOnUse">
			<stop  offset="0" style="stop-color:#FCFCFC"/>
			<stop  offset="0.1559" style="stop-color:#F1EDF5"/>
			<stop  offset="1" style="stop-color:#9FA1A6"/>
		</radialGradient>
		<path fill="url(#SVGID_1_)" d="M34.4,45c0,15.1,12.3,27.4,27.4,27.4c15.1,0,27.4-12.3,27.4-27.4c0-15.1-12.3-27.4-27.4-27.4
			C46.6,17.6,34.4,29.8,34.4,45z"/>
		<g>
			<path fill="#B0B1B6" d="M42.6,49.8c2.6-0.2,4.4-3.2,4.1-6.5c-0.3-3.4-2.6-5.9-5.2-5.7c-2.6,0.2-4.4,3.2-4.1,6.5
				C37.7,47.5,40,50,42.6,49.8z"/>
			<path fill="#B0B1B6" d="M40.4,52.2c-1.5,0.8-1.9,3.1-0.9,5.1c1.1,2,3.2,3,4.7,2.2c1.5-0.8,1.9-3.1,0.9-5.1
				C44,52.4,41.9,51.4,40.4,52.2z"/>
			<path fill="#B0B1B6" d="M46.5,49.8c-0.9,0.5-1.1,1.8-0.5,3c0.6,1.2,1.9,1.8,2.8,1.3c0.9-0.5,1.1-1.8,0.5-3
				C48.7,49.9,47.4,49.3,46.5,49.8z"/>
			<path fill="#B0B1B6" d="M87.1,45.9c-0.5-3.4-2.9-5.8-5.5-5.4c-2.6,0.4-4.2,3.4-3.8,6.7c0.5,3.4,2.9,5.8,5.5,5.4
				C85.8,52.3,87.5,49.3,87.1,45.9z"/>
			<path fill="#B0B1B6" d="M83.7,38c1.5-0.9,1.8-3.2,0.6-5.2c-1.2-2-3.3-2.8-4.8-1.9c-1.5,0.9-1.8,3.2-0.6,5.2
				C80,38,82.2,38.9,83.7,38z"/>
			<path fill="#B0B1B6" d="M78.1,37.7c-0.7-1.2-2-1.7-2.8-1.2c-0.9,0.5-1,1.9-0.4,3c0.7,1.2,2,1.7,2.8,1.2
				C78.6,40.2,78.7,38.8,78.1,37.7z"/>
		</g>
		<g>
			
				<radialGradient id="SVGID_2_" cx="1089.2306" cy="-1879.1631" r="7.8055" gradientTransform="matrix(-0.8392 1.1536 -1.6186 -1.3126 -2055.0493 -3689.9971)" gradientUnits="userSpaceOnUse">
				<stop  offset="0" style="stop-color:#FFFFFF"/>
				<stop  offset="1" style="stop-color:#FFFFFF;stop-opacity:0"/>
			</radialGradient>
			<path fill="url(#SVGID_2_)" d="M65.9,42.1c-7-5.7-9.7-14.3-6.1-19.2c3.6-5,12.2-4.4,19.2,1.2c7,5.7,9.7,14.3,6.1,19.2
				C81.5,48.4,72.9,47.8,65.9,42.1z"/>
			
				<radialGradient id="SVGID_3_" cx="-2992.1763" cy="2934.3799" r="7.5325" gradientTransform="matrix(-1.1717 -1.1007 0.222 -0.7283 -4110.9922 -1097.0844)" gradientUnits="userSpaceOnUse">
				<stop  offset="0" style="stop-color:#FFFFFF"/>
				<stop  offset="1" style="stop-color:#FFFFFF;stop-opacity:0"/>
			</radialGradient>
			<path opacity="0.4" fill="url(#SVGID_3_)" d="M37.5,51c0.9-3,5.6-1.8,10.5,2.8c4.9,4.6,8.1,10.7,7.2,13.8
				c-0.9,3-5.6,1.8-10.5-2.8C39.8,60.2,36.6,54,37.5,51z"/>
		</g>
	</g>
	<g>
		
			<radialGradient id="SVGID_4_" cx="1359.4304" cy="41.7108" r="58.8311" gradientTransform="matrix(-1 0 0 1 1385.1875 0)" gradientUnits="userSpaceOnUse">
			<stop  offset="0" style="stop-color:#BAD0D6"/>
			<stop  offset="0.198" style="stop-color:#9BBAC2"/>
			<stop  offset="1" style="stop-color:#5D8BB8"/>
		</radialGradient>
		<path fill="url(#SVGID_4_)" d="M34.6,35.2c11.2,0,20.5,7.7,23,18.1c2-1,4.3-1.5,6.7-1.5c8.5,0,15.4,6.9,15.4,15.4
			c0,8.5-6.9,15.4-15.4,15.4H34.6c-13.1,0-23.7-10.6-23.7-23.7C10.9,45.8,21.6,35.2,34.6,35.2z"/>
		
			<radialGradient id="SVGID_5_" cx="529.3798" cy="-2383.9622" r="6.9031" gradientTransform="matrix(0.8392 1.1536 1.6186 -1.3126 3440.2368 -3689.9971)" gradientUnits="userSpaceOnUse">
			<stop  offset="0" style="stop-color:#FFFFFF"/>
			<stop  offset="1" style="stop-color:#FFFFFF;stop-opacity:0"/>
		</radialGradient>
		<path opacity="0.5" fill="url(#SVGID_5_)" d="M31.6,57.8c6.2-5,8.6-12.6,5.4-17c-3.2-4.4-10.8-3.9-17,1.1c-6.2,5-8.6,12.6-5.4,17
			C17.8,63.3,25.4,62.9,31.6,57.8z"/>
		
			<radialGradient id="SVGID_6_" cx="549.7603" cy="-2373.7358" r="3.7942" gradientTransform="matrix(0.8392 1.1536 1.6186 -1.3126 3440.2368 -3689.9971)" gradientUnits="userSpaceOnUse">
			<stop  offset="0" style="stop-color:#FFFFFF"/>
			<stop  offset="1" style="stop-color:#FFFFFF;stop-opacity:0"/>
		</radialGradient>
		<path opacity="0.3" fill="url(#SVGID_6_)" d="M62.7,64.3c3.4-2.8,4.7-6.9,3-9.4c-1.8-2.4-5.9-2.1-9.3,0.6c-3.4,2.8-4.7,6.9-3,9.4
			C55.1,67.4,59.3,67.1,62.7,64.3z"/>
		
			<radialGradient id="SVGID_7_" cx="1483.3834" cy="111.808" r="3.9672" gradientTransform="matrix(-0.7056 -0.4583 -1.3993 1.8312 1275.2107 549.0213)" gradientUnits="userSpaceOnUse">
			<stop  offset="0" style="stop-color:#FFFFFF"/>
			<stop  offset="1" style="stop-color:#FFFFFF;stop-opacity:0"/>
		</radialGradient>
		<path opacity="0.2" fill="url(#SVGID_7_)" d="M70.2,70.3c3.7-3.8,7.6-5.2,8.6-3.3c1,1.9-1.2,6.6-4.9,10.4
			c-3.7,3.8-7.6,5.2-8.6,3.3C64.3,78.8,66.4,74.1,70.2,70.3z"/>
	</g>
</g>
</svg>
