<?xml version="1.0" encoding="utf-8"?>
<!-- Generator: Adobe Illustrator 24.1.1, SVG Export Plug-In . SVG Version: 6.00 Build 0)  -->
<svg version="1.1" id="Layer_1" xmlns="http://www.w3.org/2000/svg" xmlns:xlink="http://www.w3.org/1999/xlink" x="0px" y="0px"
	 viewBox="0 0 100 100" enable-background="new 0 0 100 100" xml:space="preserve">
<g>
	<g>
		<g>
			
				<radialGradient id="SVGID_1_" cx="-142.3496" cy="25.0941" r="51.9996" gradientTransform="matrix(-1 0 0 1 -74.3271 0)" gradientUnits="userSpaceOnUse">
				<stop  offset="0" style="stop-color:#FCFCFC"/>
				<stop  offset="0.1559" style="stop-color:#F1EDF5"/>
				<stop  offset="1" style="stop-color:#9FA1A6"/>
			</radialGradient>
			<path fill="url(#SVGID_1_)" d="M34.4,42.3c0,15.1,12.3,27.4,27.4,27.4s27.4-12.3,27.4-27.4c0-15.1-12.3-27.4-27.4-27.4
				S34.4,27.1,34.4,42.3z"/>
			<g>
				<path fill="#B0B1B6" d="M42.6,47.1c2.6-0.2,4.4-3.2,4.1-6.5c-0.3-3.4-2.6-5.9-5.2-5.7c-2.6,0.2-4.4,3.2-4.1,6.5
					C37.7,44.8,40,47.3,42.6,47.1z"/>
				<path fill="#B0B1B6" d="M40.4,49.6c-1.5,0.8-1.9,3.1-0.9,5.1c1.1,2,3.2,3,4.7,2.2c1.5-0.8,1.9-3.1,0.9-5.1
					C44,49.7,41.9,48.8,40.4,49.6z"/>
				<path fill="#B0B1B6" d="M46.5,47.1c-0.9,0.5-1.1,1.8-0.5,3c0.6,1.2,1.9,1.8,2.8,1.3c0.9-0.5,1.1-1.8,0.5-3
					C48.7,47.2,47.4,46.7,46.5,47.1z"/>
				<path fill="#B0B1B6" d="M87.1,43.3c-0.5-3.4-2.9-5.8-5.5-5.4c-2.6,0.4-4.2,3.4-3.8,6.7c0.5,3.4,2.9,5.8,5.5,5.4
					C85.8,49.6,87.5,46.6,87.1,43.3z"/>
				<path fill="#B0B1B6" d="M83.7,35.3c1.5-0.9,1.8-3.2,0.6-5.2c-1.2-2-3.3-2.8-4.8-1.9c-1.5,0.9-1.8,3.2-0.6,5.2
					C80,35.3,82.2,36.2,83.7,35.3z"/>
				<path fill="#B0B1B6" d="M78.1,35c-0.7-1.2-2-1.7-2.8-1.2c-0.9,0.5-1,1.9-0.4,3c0.7,1.2,2,1.7,2.8,1.2
					C78.6,37.5,78.7,36.1,78.1,35z"/>
			</g>
			<g>
				
					<radialGradient id="SVGID_2_" cx="1087.7679" cy="-1878.4048" r="7.8055" gradientTransform="matrix(-0.8392 1.1536 -1.6186 -1.3126 -2055.0493 -3689.9971)" gradientUnits="userSpaceOnUse">
					<stop  offset="0" style="stop-color:#FFFFFF"/>
					<stop  offset="1" style="stop-color:#FFFFFF;stop-opacity:0"/>
				</radialGradient>
				<path fill="url(#SVGID_2_)" d="M65.9,39.5c-7-5.7-9.7-14.3-6.1-19.2c3.6-5,12.2-4.4,19.2,1.2c7,5.7,9.7,14.3,6.1,19.2
					C81.5,45.7,72.9,45.1,65.9,39.5z"/>
				
					<radialGradient id="SVGID_3_" cx="-2991.6338" cy="2937.2434" r="7.5325" gradientTransform="matrix(-1.1717 -1.1007 0.222 -0.7283 -4110.9922 -1097.0844)" gradientUnits="userSpaceOnUse">
					<stop  offset="0" style="stop-color:#FFFFFF"/>
					<stop  offset="1" style="stop-color:#FFFFFF;stop-opacity:0"/>
				</radialGradient>
				<path opacity="0.4" fill="url(#SVGID_3_)" d="M37.5,48.3c0.9-3,5.6-1.8,10.5,2.8c4.9,4.6,8.1,10.7,7.2,13.8
					c-0.9,3-5.6,1.8-10.5-2.8C39.8,57.5,36.6,51.3,37.5,48.3z"/>
			</g>
		</g>
		<g>
			
				<radialGradient id="SVGID_4_" cx="1359.4304" cy="39.0281" r="58.8311" gradientTransform="matrix(-1 0 0 1 1385.1875 0)" gradientUnits="userSpaceOnUse">
				<stop  offset="0" style="stop-color:#BAD0D6"/>
				<stop  offset="0.198" style="stop-color:#9BBAC2"/>
				<stop  offset="1" style="stop-color:#5D8BB8"/>
			</radialGradient>
			<path fill="url(#SVGID_4_)" d="M34.6,32.5c11.2,0,20.5,7.7,23,18.1c2-1,4.3-1.5,6.7-1.5c8.5,0,15.4,6.9,15.4,15.4
				c0,8.5-6.9,15.4-15.4,15.4H34.6c-13.1,0-23.7-10.6-23.7-23.7C10.9,43.1,21.6,32.5,34.6,32.5z"/>
			
				<radialGradient id="SVGID_5_" cx="527.9172" cy="-2383.2039" r="6.9031" gradientTransform="matrix(0.8392 1.1536 1.6186 -1.3126 3440.2368 -3689.9971)" gradientUnits="userSpaceOnUse">
				<stop  offset="0" style="stop-color:#FFFFFF"/>
				<stop  offset="1" style="stop-color:#FFFFFF;stop-opacity:0"/>
			</radialGradient>
			<path opacity="0.5" fill="url(#SVGID_5_)" d="M31.6,55.2c6.2-5,8.6-12.6,5.4-17c-3.2-4.4-10.8-3.9-17,1.1c-6.2,5-8.6,12.6-5.4,17
				C17.8,60.7,25.4,60.2,31.6,55.2z"/>
			
				<radialGradient id="SVGID_6_" cx="548.2977" cy="-2372.9775" r="3.7942" gradientTransform="matrix(0.8392 1.1536 1.6186 -1.3126 3440.2368 -3689.9971)" gradientUnits="userSpaceOnUse">
				<stop  offset="0" style="stop-color:#FFFFFF"/>
				<stop  offset="1" style="stop-color:#FFFFFF;stop-opacity:0"/>
			</radialGradient>
			<path opacity="0.3" fill="url(#SVGID_6_)" d="M62.7,61.7c3.4-2.8,4.7-6.9,3-9.4c-1.8-2.4-5.9-2.1-9.3,0.6c-3.4,2.8-4.7,6.9-3,9.4
				C55.1,64.7,59.3,64.4,62.7,61.7z"/>
			
				<radialGradient id="SVGID_7_" cx="1483.8964" cy="108.3979" r="3.9672" gradientTransform="matrix(-0.7056 -0.4583 -1.3993 1.8312 1270.801 552.8184)" gradientUnits="userSpaceOnUse">
				<stop  offset="0" style="stop-color:#FFFFFF"/>
				<stop  offset="1" style="stop-color:#FFFFFF;stop-opacity:0"/>
			</radialGradient>
			<path opacity="0.2" fill="url(#SVGID_7_)" d="M70.2,67.7c3.7-3.8,7.6-5.2,8.6-3.3c1,1.9-1.2,6.6-4.9,10.4
				c-3.7,3.8-7.6,5.2-8.6,3.3C64.3,76.1,66.4,71.4,70.2,67.7z"/>
		</g>
	</g>
	<g>
		<g>
			
				<radialGradient id="SVGID_8_" cx="-246.2955" cy="-2.9906" r="9.8913" gradientTransform="matrix(0.866 0.5 -0.5 0.866 241.0088 207.5015)" gradientUnits="userSpaceOnUse">
				<stop  offset="0" style="stop-color:#D4F6FF"/>
				<stop  offset="0.198" style="stop-color:#D9F7FF"/>
				<stop  offset="1" style="stop-color:#89C0F5"/>
			</radialGradient>
			<path fill="url(#SVGID_8_)" d="M34.7,82.7c-1.1,2-3.7,2.6-5.6,1.5c-2-1.1-2.6-3.6-1.5-5.6c1.1-2,8.2-5.9,8.2-5.9
				S35.9,80.7,34.7,82.7z"/>
			
				<radialGradient id="SVGID_9_" cx="1210.1067" cy="-1744.8341" r="1.5495" gradientTransform="matrix(-1.3036 0.5794 -0.7454 -1.946 306.6301 -4015.4641)" gradientUnits="userSpaceOnUse">
				<stop  offset="0" style="stop-color:#FFFFFF"/>
				<stop  offset="1" style="stop-color:#FFFFFF;stop-opacity:0"/>
			</radialGradient>
			<path fill="url(#SVGID_9_)" d="M27.7,82c-0.6-1.7-0.3-3.4,0.9-3.9s2.5,0.5,3.2,2.1c0.6,1.7,0.2,3.4-0.9,3.9
				C29.8,84.6,28.4,83.7,27.7,82z"/>
		</g>
		<g>
			
				<radialGradient id="SVGID_10_" cx="-231.3175" cy="-11.6394" r="9.8913" gradientTransform="matrix(0.866 0.5 -0.5 0.866 241.0088 207.5015)" gradientUnits="userSpaceOnUse">
				<stop  offset="0" style="stop-color:#D4F6FF"/>
				<stop  offset="0.198" style="stop-color:#D9F7FF"/>
				<stop  offset="1" style="stop-color:#89C0F5"/>
			</radialGradient>
			<path fill="url(#SVGID_10_)" d="M52,82.7c-1.1,2-3.6,2.6-5.6,1.5c-2-1.1-2.6-3.6-1.5-5.6c1.1-2,8.2-5.9,8.2-5.9
				S53.1,80.7,52,82.7z"/>
			
				<radialGradient id="SVGID_11_" cx="1198.7692" cy="-1748.2097" r="1.5491" gradientTransform="matrix(-1.3036 0.5794 -0.7454 -1.946 306.6301 -4015.4641)" gradientUnits="userSpaceOnUse">
				<stop  offset="0" style="stop-color:#FFFFFF"/>
				<stop  offset="1" style="stop-color:#FFFFFF;stop-opacity:0"/>
			</radialGradient>
			<path fill="url(#SVGID_11_)" d="M45,82c-0.6-1.7-0.3-3.4,0.9-3.9c1.1-0.5,2.5,0.5,3.2,2.1c0.6,1.7,0.3,3.4-0.9,3.9
				C47.1,84.6,45.6,83.7,45,82z"/>
		</g>
		<g>
			
				<radialGradient id="SVGID_12_" cx="-216.3377" cy="-20.2881" r="9.8912" gradientTransform="matrix(0.866 0.5 -0.5 0.866 241.0088 207.5015)" gradientUnits="userSpaceOnUse">
				<stop  offset="0" style="stop-color:#D4F6FF"/>
				<stop  offset="0.198" style="stop-color:#D9F7FF"/>
				<stop  offset="1" style="stop-color:#89C0F5"/>
			</radialGradient>
			<path fill="url(#SVGID_12_)" d="M69.3,82.7c-1.1,2-3.6,2.6-5.6,1.5c-2-1.1-2.6-3.6-1.5-5.6c1.1-2,8.2-5.9,8.2-5.9
				S70.4,80.7,69.3,82.7z"/>
			
				<radialGradient id="SVGID_13_" cx="1187.4309" cy="-1751.5856" r="1.5491" gradientTransform="matrix(-1.3036 0.5794 -0.7454 -1.946 306.6301 -4015.4641)" gradientUnits="userSpaceOnUse">
				<stop  offset="0" style="stop-color:#FFFFFF"/>
				<stop  offset="1" style="stop-color:#FFFFFF;stop-opacity:0"/>
			</radialGradient>
			<path fill="url(#SVGID_13_)" d="M62.3,82c-0.6-1.7-0.3-3.4,0.9-3.9c1.1-0.5,2.5,0.5,3.2,2.1c0.6,1.7,0.3,3.4-0.9,3.9
				C64.4,84.6,62.9,83.7,62.3,82z"/>
		</g>
	</g>
</g>
</svg>
