<?xml version="1.0" encoding="utf-8"?>
<!-- Generator: Adobe Illustrator 24.1.1, SVG Export Plug-In . SVG Version: 6.00 Build 0)  -->
<svg version="1.1" id="Layer_1" xmlns="http://www.w3.org/2000/svg" xmlns:xlink="http://www.w3.org/1999/xlink" x="0px" y="0px"
	 viewBox="0 0 100 100" enable-background="new 0 0 100 100" xml:space="preserve">
<g>
	<g>
		
			<radialGradient id="SVGID_1_" cx="-139.9907" cy="32.6551" r="40.5984" gradientTransform="matrix(-1 0 0 1 -74.3271 0)" gradientUnits="userSpaceOnUse">
			<stop  offset="0" style="stop-color:#FFF8C7"/>
			<stop  offset="0.1559" style="stop-color:#FFE436"/>
			<stop  offset="1" style="stop-color:#FE761C"/>
		</radialGradient>
		<path fill="url(#SVGID_1_)" d="M39.4,46.1c0,11.8,9.6,21.4,21.4,21.4c11.8,0,21.4-9.6,21.4-21.4c0-11.8-9.6-21.4-21.4-21.4
			C49,24.7,39.4,34.3,39.4,46.1z"/>
		<g>
			
				<radialGradient id="SVGID_2_" cx="1092.7258" cy="-1878.913" r="6.0941" gradientTransform="matrix(-0.8392 1.1536 -1.6186 -1.3126 -2055.0493 -3689.9971)" gradientUnits="userSpaceOnUse">
				<stop  offset="0" style="stop-color:#FFFFFF"/>
				<stop  offset="1" style="stop-color:#FFFFFF;stop-opacity:0"/>
			</radialGradient>
			<path fill="url(#SVGID_2_)" d="M64,43.9c-5.4-4.4-7.6-11.1-4.8-15c2.8-3.9,9.5-3.4,15,1c5.4,4.4,7.6,11.1,4.7,15
				C76.2,48.7,69.5,48.3,64,43.9z"/>
			
				<radialGradient id="SVGID_3_" cx="-2993.3491" cy="2938.9429" r="5.8803" gradientTransform="matrix(-1.1717 -1.1007 0.222 -0.7283 -4110.9922 -1097.0844)" gradientUnits="userSpaceOnUse">
				<stop  offset="0" style="stop-color:#FFFFFF"/>
				<stop  offset="1" style="stop-color:#FFFFFF;stop-opacity:0"/>
			</radialGradient>
			<path opacity="0.4" fill="url(#SVGID_3_)" d="M41.9,50.8c0.7-2.4,4.4-1.4,8.2,2.2c3.8,3.6,6.3,8.4,5.6,10.8
				c-0.7,2.4-4.4,1.4-8.2-2.2C43.7,58,41.2,53.2,41.9,50.8z"/>
		</g>
		<radialGradient id="SVGID_4_" cx="61.2448" cy="13.3906" r="7.0638" gradientUnits="userSpaceOnUse">
			<stop  offset="0" style="stop-color:#FFF8C7"/>
			<stop  offset="0.1559" style="stop-color:#FFE436"/>
			<stop  offset="1" style="stop-color:#FE761C"/>
		</radialGradient>
		<path fill="url(#SVGID_4_)" d="M63.4,18.4c0,1.4-1.2,2.6-2.6,2.6l0,0c-1.4,0-2.6-1.2-2.6-2.6v-3.7c0-1.4,1.2-2.6,2.6-2.6l0,0
			c1.4,0,2.6,1.2,2.6,2.6V18.4z"/>
		
			<radialGradient id="SVGID_5_" cx="461.0757" cy="-214.7177" r="7.0641" gradientTransform="matrix(0.7071 -0.7071 0.7071 0.7071 -136.198 500.4805)" gradientUnits="userSpaceOnUse">
			<stop  offset="0" style="stop-color:#FFF8C7"/>
			<stop  offset="0.1559" style="stop-color:#FFE436"/>
			<stop  offset="1" style="stop-color:#FE761C"/>
		</radialGradient>
		<path fill="url(#SVGID_5_)" d="M43,24.6c1,1,1,2.7,0,3.7l0,0c-1,1-2.7,1-3.7,0l-2.6-2.6c-1-1-1-2.7,0-3.7l0,0c1-1,2.7-1,3.7,0
			L43,24.6z"/>
		
			<radialGradient id="SVGID_6_" cx="905.0084" cy="-93.4793" r="7.0646" gradientTransform="matrix(0 -1 1 0 121.5769 950.6016)" gradientUnits="userSpaceOnUse">
			<stop  offset="0" style="stop-color:#FFF8C7"/>
			<stop  offset="0.1559" style="stop-color:#FFE436"/>
			<stop  offset="1" style="stop-color:#FE761C"/>
		</radialGradient>
		<path fill="url(#SVGID_6_)" d="M33.1,43.5c1.4,0,2.6,1.2,2.6,2.6l0,0c0,1.4-1.2,2.6-2.6,2.6h-3.7c-1.4,0-2.6-1.2-2.6-2.6l0,0
			c0-1.4,1.2-2.6,2.6-2.6H33.1z"/>
		
			<radialGradient id="SVGID_7_" cx="1133.2808" cy="306.3504" r="7.0647" gradientTransform="matrix(-0.7071 -0.7071 0.7071 -0.7071 622.0566 1086.7986)" gradientUnits="userSpaceOnUse">
			<stop  offset="0" style="stop-color:#FFF8C7"/>
			<stop  offset="0.1559" style="stop-color:#FFE436"/>
			<stop  offset="1" style="stop-color:#FE761C"/>
		</radialGradient>
		<path fill="url(#SVGID_7_)" d="M39.3,63.8c1-1,2.7-1,3.7,0l0,0c1,1,1,2.7,0,3.7l-2.6,2.6c-1,1-2.7,1-3.7,0l0,0c-1-1-1-2.7,0-3.7
			L39.3,63.8z"/>
		
			<radialGradient id="SVGID_8_" cx="1011.8753" cy="750.2859" r="7.0638" gradientTransform="matrix(-1 0 0 -1 1072.1758 829.0254)" gradientUnits="userSpaceOnUse">
			<stop  offset="0" style="stop-color:#FFF8C7"/>
			<stop  offset="0.1559" style="stop-color:#FFE436"/>
			<stop  offset="1" style="stop-color:#FE761C"/>
		</radialGradient>
		<path fill="url(#SVGID_8_)" d="M58.2,73.8c0-1.4,1.2-2.6,2.6-2.6l0,0c1.4,0,2.6,1.2,2.6,2.6l0,3.7c0,1.4-1.2,2.6-2.6,2.6l0,0
			c-1.4,0-2.6-1.2-2.6-2.6L58.2,73.8z"/>
		
			<radialGradient id="SVGID_9_" cx="612.2101" cy="978.5591" r="7.0642" gradientTransform="matrix(-0.7071 0.7071 -0.7071 -0.7071 1208.3767 328.5479)" gradientUnits="userSpaceOnUse">
			<stop  offset="0" style="stop-color:#FFF8C7"/>
			<stop  offset="0.1559" style="stop-color:#FFE436"/>
			<stop  offset="1" style="stop-color:#FE761C"/>
		</radialGradient>
		<path fill="url(#SVGID_9_)" d="M78.5,67.5c-1-1-1-2.7,0-3.7l0,0c1-1,2.7-1,3.7,0l2.6,2.6c1,1,1,2.7,0,3.7l0,0c-1,1-2.7,1-3.7,0
			L78.5,67.5z"/>
		
			<radialGradient id="SVGID_10_" cx="168.1106" cy="857.1581" r="7.0637" gradientTransform="matrix(0 1 -1 0 950.6055 -121.5742)" gradientUnits="userSpaceOnUse">
			<stop  offset="0" style="stop-color:#FFF8C7"/>
			<stop  offset="0.1559" style="stop-color:#FFE436"/>
			<stop  offset="1" style="stop-color:#FE761C"/>
		</radialGradient>
		<path fill="url(#SVGID_10_)" d="M88.5,48.7c-1.4,0-2.6-1.2-2.6-2.6l0,0c0-1.4,1.2-2.6,2.6-2.6h3.7c1.4,0,2.6,1.2,2.6,2.6l0,0
			c0,1.4-1.2,2.6-2.6,2.6H88.5z"/>
		
			<radialGradient id="SVGID_11_" cx="-59.9964" cy="457.4912" r="7.0641" gradientTransform="matrix(0.7071 0.7071 -0.7071 0.7071 450.126 -257.7751)" gradientUnits="userSpaceOnUse">
			<stop  offset="0" style="stop-color:#FFF8C7"/>
			<stop  offset="0.1559" style="stop-color:#FFE436"/>
			<stop  offset="1" style="stop-color:#FE761C"/>
		</radialGradient>
		<path fill="url(#SVGID_11_)" d="M82.2,28.3c-1,1-2.7,1-3.7,0l0,0c-1-1-1-2.7,0-3.7l2.6-2.6c1-1,2.7-1,3.7,0l0,0c1,1,1,2.7,0,3.7
			L82.2,28.3z"/>
	</g>
	<g>
		
			<radialGradient id="SVGID_12_" cx="1362.2938" cy="39.6038" r="69.7289" gradientTransform="matrix(-1 0 0 1 1385.1875 0)" gradientUnits="userSpaceOnUse">
			<stop  offset="0" style="stop-color:#FFFFFF"/>
			<stop  offset="0.198" style="stop-color:#D9F7FF"/>
			<stop  offset="1" style="stop-color:#89C0F5"/>
		</radialGradient>
		<path fill="url(#SVGID_12_)" d="M33.4,31.9c13.2,0,24.3,9.1,27.3,21.5c2.4-1.2,5.1-1.8,7.9-1.8c10.1,0,18.3,8.2,18.3,18.3
			c0,10.1-8.2,18.3-18.3,18.3H33.4C17.9,88.1,5.3,75.5,5.3,60C5.3,44.5,17.9,31.9,33.4,31.9z"/>
		<radialGradient id="SVGID_13_" cx="55.2593" cy="45.9445" r="39.8354" gradientUnits="userSpaceOnUse">
			<stop  offset="0" style="stop-color:#FFE436"/>
			<stop  offset="1.982603e-02" style="stop-color:#FFDF35;stop-opacity:0.9742"/>
			<stop  offset="0.1739" style="stop-color:#FFB92C;stop-opacity:0.7739"/>
			<stop  offset="0.3276" style="stop-color:#FE9C25;stop-opacity:0.5739"/>
			<stop  offset="0.4791" style="stop-color:#FE8720;stop-opacity:0.3768"/>
			<stop  offset="0.6274" style="stop-color:#FE7A1D;stop-opacity:0.1839"/>
			<stop  offset="0.7688" style="stop-color:#FE761C;stop-opacity:0"/>
		</radialGradient>
		<path fill="url(#SVGID_13_)" d="M33.4,31.9c13.2,0,24.3,9.1,27.3,21.5c2.4-1.2,5.1-1.8,7.9-1.8c10.1,0,18.3,8.2,18.3,18.3
			c0,10.1-8.2,18.3-18.3,18.3H33.4C17.9,88.1,5.3,75.5,5.3,60C5.3,44.5,17.9,31.9,33.4,31.9z"/>
		
			<radialGradient id="SVGID_14_" cx="527.7952" cy="-2384.9033" r="8.1823" gradientTransform="matrix(0.8392 1.1536 1.6186 -1.3126 3440.2368 -3689.9971)" gradientUnits="userSpaceOnUse">
			<stop  offset="0" style="stop-color:#FFFFFF"/>
			<stop  offset="1" style="stop-color:#FFFFFF;stop-opacity:0"/>
		</radialGradient>
		<path fill="url(#SVGID_14_)" d="M29.8,58.7c7.3-5.9,10.2-15,6.4-20.2c-3.8-5.2-12.8-4.6-20.1,1.3C8.8,45.8,5.9,54.8,9.7,60
			C13.5,65.2,22.5,64.7,29.8,58.7z"/>
		
			<radialGradient id="SVGID_15_" cx="551.9512" cy="-2372.7822" r="4.4969" gradientTransform="matrix(0.8392 1.1536 1.6186 -1.3126 3440.2368 -3689.9971)" gradientUnits="userSpaceOnUse">
			<stop  offset="0" style="stop-color:#FFFFFF"/>
			<stop  offset="1" style="stop-color:#FFFFFF;stop-opacity:0"/>
		</radialGradient>
		<path opacity="0.4" fill="url(#SVGID_15_)" d="M66.6,66.4c4-3.3,5.6-8.2,3.5-11.1c-2.1-2.9-7-2.5-11.1,0.7
			c-4,3.3-5.6,8.2-3.5,11.1C57.7,70,62.6,69.7,66.6,66.4z"/>
		
			<radialGradient id="SVGID_16_" cx="1476.0677" cy="115.4998" r="4.7021" gradientTransform="matrix(-0.7056 -0.4583 -1.3993 1.8312 1280.9221 542.7592)" gradientUnits="userSpaceOnUse">
			<stop  offset="0" style="stop-color:#FFFFFF"/>
			<stop  offset="1" style="stop-color:#FFFFFF;stop-opacity:0"/>
		</radialGradient>
		<path opacity="0.2" fill="url(#SVGID_16_)" d="M75.5,73.5c4.4-4.5,9-6.2,10.2-3.9c1.2,2.3-1.4,7.8-5.8,12.3
			c-4.4,4.5-9,6.2-10.2,3.9C68.5,83.5,71.1,78,75.5,73.5z"/>
	</g>
</g>
</svg>
