<?xml version="1.0" encoding="utf-8"?>
<!-- Generator: Adobe Illustrator 24.1.1, SVG Export Plug-In . SVG Version: 6.00 Build 0)  -->
<svg version="1.1" id="Object" xmlns="http://www.w3.org/2000/svg" xmlns:xlink="http://www.w3.org/1999/xlink" x="0px" y="0px"
	 viewBox="0 0 1122 1122" enable-background="new 0 0 1122 1122" xml:space="preserve">
<g>
	<path fill="#FFFFFF" d="M588.9,0v60.9h-11.6l-30.4-37v37h-13.9V0h11.7L575,37V0H588.9z"/>
</g>
<g>
	<path fill="#FFFFFF" d="M73,532.6L58,579.3H46.7l-10-31.7l-10.4,31.7H15L0,532.6h11l10.3,32.9L32,532.6h9.8l10.4,33.1l10.6-33.1H73
		z"/>
</g>
<g>
	<path fill="#FFFFFF" d="M1122,580.1v11.3h-57v-60.9h55.7v11.3h-38.7v13.2h34.2v11h-34.2v14.1H1122z"/>
</g>
<g>
	<path fill="#FFFFFF" d="M535.7,1115l4.8-10.6c5.1,3.7,12.8,6.4,20.1,6.4c8.4,0,11.7-2.8,11.7-6.5c0-11.4-35.4-3.6-35.4-26.2
		c0-10.4,8.4-19,25.7-19c7.7,0,15.5,1.8,21.1,5.4l-4.4,10.7c-5.7-3.2-11.5-4.8-16.9-4.8c-8.4,0-11.6,3.1-11.6,7
		c0,11.2,35.4,3.5,35.4,25.8c0,10.2-8.4,18.9-25.8,18.9C550.8,1122,541.1,1119.1,535.7,1115z"/>
</g>
<g>
	<path fill="#FFFFFF" d="M561,82.8c64.6,0,127.2,12.6,186.1,37.6c56.9,24.1,108.1,58.6,152,102.5c43.9,43.9,78.4,95.1,102.5,152
		c24.9,59,37.6,121.6,37.6,186.1s-12.6,127.2-37.6,186.1c-24.1,56.9-58.6,108.1-102.5,152c-43.9,43.9-95.1,78.4-152,102.5
		c-59,24.9-121.6,37.6-186.1,37.6s-127.2-12.6-186.1-37.6c-56.9-24.1-108.1-58.6-152-102.5c-43.9-43.9-78.4-95.1-102.5-152
		c-24.9-59-37.6-121.6-37.6-186.1s12.6-127.2,37.6-186.1c24.1-56.9,58.6-108.1,102.5-152c43.9-43.9,95.1-78.4,152-102.5
		C433.8,95.4,496.4,82.8,561,82.8 M561,74.8C292.5,74.8,74.8,292.5,74.8,561s217.7,486.2,486.2,486.2s486.2-217.7,486.2-486.2
		S829.5,74.8,561,74.8L561,74.8z"/>
</g>
<g>
	<path fill="#FFFFFF" d="M561,126c58.7,0,115.7,11.5,169.3,34.2c51.8,21.9,98.3,53.3,138.3,93.2c40,40,71.3,86.5,93.2,138.3
		C984.5,445.3,996,502.3,996,561s-11.5,115.7-34.2,169.3c-21.9,51.8-53.3,98.3-93.2,138.3c-40,40-86.5,71.3-138.3,93.2
		C676.7,984.5,619.7,996,561,996s-115.7-11.5-169.3-34.2c-51.8-21.9-98.3-53.3-138.3-93.2c-40-40-71.3-86.5-93.2-138.3
		C137.5,676.7,126,619.7,126,561s11.5-115.7,34.2-169.3c21.9-51.8,53.3-98.3,93.2-138.3c40-40,86.5-71.3,138.3-93.2
		C445.3,137.5,502.3,126,561,126 M561,118c-244.7,0-443,198.4-443,443s198.4,443,443,443s443-198.4,443-443S805.7,118,561,118
		L561,118z"/>
</g>
<g>
	<g>
		<g>
			<line fill="none" stroke="#FFFFFF" stroke-width="8" stroke-miterlimit="10" x1="561" y1="74.8" x2="561" y2="122.8"/>
		</g>
		<circle fill="#FFFFFF" cx="587" cy="100.1" r="3.6"/>
		<circle fill="#FFFFFF" cx="535.3" cy="100.1" r="3.6"/>
	</g>
	<g>
		<g>
			<line fill="none" stroke="#FFFFFF" stroke-width="8" stroke-miterlimit="10" x1="645.4" y1="82.1" x2="637.1" y2="129.4"/>
		</g>
		<circle fill="#FFFFFF" cx="666.6" cy="111.6" r="3.6"/>
		<circle fill="#FFFFFF" cx="615.7" cy="102.6" r="3.6"/>
	</g>
	<g>
		<g>
			<line fill="none" stroke="#FFFFFF" stroke-width="8" stroke-miterlimit="10" x1="727.3" y1="104.1" x2="710.9" y2="149.2"/>
		</g>
		<circle fill="#FFFFFF" cx="743.1" cy="136.8" r="3.6"/>
		<circle fill="#FFFFFF" cx="694.5" cy="119.1" r="3.6"/>
	</g>
	<g>
		<g>
			<line fill="none" stroke="#FFFFFF" stroke-width="8" stroke-miterlimit="10" x1="804.1" y1="139.8" x2="780.1" y2="181.4"/>
		</g>
		<circle fill="#FFFFFF" cx="814" cy="174.8" r="3.6"/>
		<circle fill="#FFFFFF" cx="769.2" cy="148.9" r="3.6"/>
	</g>
	<g>
		<g>
			<line fill="none" stroke="#FFFFFF" stroke-width="8" stroke-miterlimit="10" x1="873.6" y1="188.4" x2="842.7" y2="225.2"/>
		</g>
		<circle fill="#FFFFFF" cx="877.2" cy="224.6" r="3.6"/>
		<circle fill="#FFFFFF" cx="837.6" cy="191.3" r="3.6"/>
	</g>
	<g>
		<g>
			<line fill="none" stroke="#FFFFFF" stroke-width="8" stroke-miterlimit="10" x1="933.5" y1="248.4" x2="896.7" y2="279.2"/>
		</g>
		<circle fill="#FFFFFF" cx="930.8" cy="284.6" r="3.6"/>
		<circle fill="#FFFFFF" cx="897.6" cy="245" r="3.6"/>
	</g>
	<g>
		<g>
			<line fill="none" stroke="#FFFFFF" stroke-width="8" stroke-miterlimit="10" x1="982.2" y1="317.8" x2="940.6" y2="341.8"/>
		</g>
		<circle fill="#FFFFFF" cx="973.2" cy="353" r="3.6"/>
		<circle fill="#FFFFFF" cx="947.3" cy="308.2" r="3.6"/>
	</g>
	<g>
		<g>
			<line fill="none" stroke="#FFFFFF" stroke-width="8" stroke-miterlimit="10" x1="1018" y1="394.6" x2="972.9" y2="411"/>
		</g>
		<circle fill="#FFFFFF" cx="1003.1" cy="427.7" r="3.6"/>
		<circle fill="#FFFFFF" cx="985.4" cy="379.1" r="3.6"/>
	</g>
	<g>
		<g>
			<line fill="none" stroke="#FFFFFF" stroke-width="8" stroke-miterlimit="10" x1="1039.9" y1="476.4" x2="992.7" y2="484.8"/>
		</g>
		<circle fill="#FFFFFF" cx="1019.5" cy="506.4" r="3.6"/>
		<circle fill="#FFFFFF" cx="1010.5" cy="455.5" r="3.6"/>
	</g>
	<g>
		<g>
			<line fill="none" stroke="#FFFFFF" stroke-width="8" stroke-miterlimit="10" x1="1047.4" y1="560.9" x2="999.4" y2="560.9"/>
		</g>
		<circle fill="#FFFFFF" cx="1022" cy="586.9" r="3.6"/>
		<circle fill="#FFFFFF" cx="1022" cy="535.1" r="3.6"/>
	</g>
	<g>
		<g>
			<line fill="none" stroke="#FFFFFF" stroke-width="8" stroke-miterlimit="10" x1="1040" y1="645.3" x2="992.7" y2="637"/>
		</g>
		<circle fill="#FFFFFF" cx="1010.5" cy="666.5" r="3.6"/>
		<circle fill="#FFFFFF" cx="1019.5" cy="615.6" r="3.6"/>
	</g>
	<g>
		<g>
			<line fill="none" stroke="#FFFFFF" stroke-width="8" stroke-miterlimit="10" x1="1018.1" y1="727.2" x2="973" y2="710.8"/>
		</g>
		<circle fill="#FFFFFF" cx="985.4" cy="742.9" r="3.6"/>
		<circle fill="#FFFFFF" cx="1003.1" cy="694.3" r="3.6"/>
	</g>
	<g>
		<g>
			<line fill="none" stroke="#FFFFFF" stroke-width="8" stroke-miterlimit="10" x1="982.3" y1="804" x2="940.7" y2="780"/>
		</g>
		<circle fill="#FFFFFF" cx="947.3" cy="813.8" r="3.6"/>
		<circle fill="#FFFFFF" cx="973.2" cy="769" r="3.6"/>
	</g>
	<g>
		<g>
			<line fill="none" stroke="#FFFFFF" stroke-width="8" stroke-miterlimit="10" x1="933.7" y1="873.4" x2="896.9" y2="842.6"/>
		</g>
		<circle fill="#FFFFFF" cx="897.6" cy="877" r="3.6"/>
		<circle fill="#FFFFFF" cx="930.8" cy="837.4" r="3.6"/>
	</g>
	<g>
		<g>
			<line fill="none" stroke="#FFFFFF" stroke-width="8" stroke-miterlimit="10" x1="873.8" y1="933.4" x2="842.9" y2="896.6"/>
		</g>
		<circle fill="#FFFFFF" cx="837.6" cy="930.7" r="3.6"/>
		<circle fill="#FFFFFF" cx="877.2" cy="897.4" r="3.6"/>
	</g>
	<g>
		<g>
			<line fill="none" stroke="#FFFFFF" stroke-width="8" stroke-miterlimit="10" x1="804.4" y1="982" x2="780.4" y2="940.4"/>
		</g>
		<circle fill="#FFFFFF" cx="769.2" cy="973.1" r="3.6"/>
		<circle fill="#FFFFFF" cx="814" cy="947.2" r="3.6"/>
	</g>
	<g>
		<g>
			<line fill="none" stroke="#FFFFFF" stroke-width="8" stroke-miterlimit="10" x1="727.6" y1="1017.9" x2="711.1" y2="972.8"/>
		</g>
		<circle fill="#FFFFFF" cx="694.5" cy="1002.9" r="3.6"/>
		<circle fill="#FFFFFF" cx="743.1" cy="985.2" r="3.6"/>
	</g>
	<g>
		<g>
			<line fill="none" stroke="#FFFFFF" stroke-width="8" stroke-miterlimit="10" x1="645.7" y1="1039.8" x2="637.4" y2="992.5"/>
		</g>
		<circle fill="#FFFFFF" cx="615.7" cy="1019.4" r="3.6"/>
		<circle fill="#FFFFFF" cx="666.6" cy="1010.4" r="3.6"/>
	</g>
	<g>
		<g>
			<line fill="none" stroke="#FFFFFF" stroke-width="8" stroke-miterlimit="10" x1="561.3" y1="1047.2" x2="561.3" y2="999.2"/>
		</g>
		<circle fill="#FFFFFF" cx="535.3" cy="1021.9" r="3.6"/>
		<circle fill="#FFFFFF" cx="587" cy="1021.9" r="3.6"/>
	</g>
	<g>
		<g>
			<line fill="none" stroke="#FFFFFF" stroke-width="8" stroke-miterlimit="10" x1="476.8" y1="1039.9" x2="485.2" y2="992.6"/>
		</g>
		<circle fill="#FFFFFF" cx="455.6" cy="1010.4" r="3.6"/>
		<circle fill="#FFFFFF" cx="506.6" cy="1019.4" r="3.6"/>
	</g>
	<g>
		<g>
			<line fill="none" stroke="#FFFFFF" stroke-width="8" stroke-miterlimit="10" x1="395" y1="1017.9" x2="411.4" y2="972.8"/>
		</g>
		<circle fill="#FFFFFF" cx="379.2" cy="985.2" r="3.6"/>
		<circle fill="#FFFFFF" cx="427.8" cy="1002.9" r="3.6"/>
	</g>
	<g>
		<g>
			<line fill="none" stroke="#FFFFFF" stroke-width="8" stroke-miterlimit="10" x1="318.1" y1="982.2" x2="342.1" y2="940.6"/>
		</g>
		<circle fill="#FFFFFF" cx="308.3" cy="947.2" r="3.6"/>
		<circle fill="#FFFFFF" cx="353.1" cy="973.1" r="3.6"/>
	</g>
	<g>
		<g>
			<line fill="none" stroke="#FFFFFF" stroke-width="8" stroke-miterlimit="10" x1="248.7" y1="933.6" x2="279.5" y2="896.8"/>
		</g>
		<circle fill="#FFFFFF" cx="245.1" cy="897.4" r="3.6"/>
		<circle fill="#FFFFFF" cx="284.7" cy="930.7" r="3.6"/>
	</g>
	<g>
		<g>
			<line fill="none" stroke="#FFFFFF" stroke-width="8" stroke-miterlimit="10" x1="188.7" y1="873.6" x2="225.5" y2="842.8"/>
		</g>
		<circle fill="#FFFFFF" cx="191.5" cy="837.4" r="3.6"/>
		<circle fill="#FFFFFF" cx="224.7" cy="877" r="3.6"/>
	</g>
	<g>
		<g>
			<line fill="none" stroke="#FFFFFF" stroke-width="8" stroke-miterlimit="10" x1="140.1" y1="804.2" x2="181.7" y2="780.2"/>
		</g>
		<circle fill="#FFFFFF" cx="149.1" cy="769" r="3.6"/>
		<circle fill="#FFFFFF" cx="174.9" cy="813.8" r="3.6"/>
	</g>
	<g>
		<g>
			<line fill="none" stroke="#FFFFFF" stroke-width="8" stroke-miterlimit="10" x1="104.3" y1="727.4" x2="149.4" y2="711"/>
		</g>
		<circle fill="#FFFFFF" cx="119.2" cy="694.3" r="3.6"/>
		<circle fill="#FFFFFF" cx="136.9" cy="742.9" r="3.6"/>
	</g>
	<g>
		<g>
			<line fill="none" stroke="#FFFFFF" stroke-width="8" stroke-miterlimit="10" x1="82.3" y1="645.6" x2="129.6" y2="637.2"/>
		</g>
		<circle fill="#FFFFFF" cx="102.8" cy="615.6" r="3.6"/>
		<circle fill="#FFFFFF" cx="111.8" cy="666.5" r="3.6"/>
	</g>
	<g>
		<g>
			<line fill="none" stroke="#FFFFFF" stroke-width="8" stroke-miterlimit="10" x1="74.9" y1="561.1" x2="122.9" y2="561.1"/>
		</g>
		<circle fill="#FFFFFF" cx="100.3" cy="535.1" r="3.6"/>
		<circle fill="#FFFFFF" cx="100.3" cy="586.9" r="3.6"/>
	</g>
	<g>
		<g>
			<line fill="none" stroke="#FFFFFF" stroke-width="8" stroke-miterlimit="10" x1="82.3" y1="476.7" x2="129.5" y2="485"/>
		</g>
		<circle fill="#FFFFFF" cx="111.8" cy="455.5" r="3.6"/>
		<circle fill="#FFFFFF" cx="102.8" cy="506.4" r="3.6"/>
	</g>
	<g>
		<g>
			<line fill="none" stroke="#FFFFFF" stroke-width="8" stroke-miterlimit="10" x1="104.2" y1="394.8" x2="149.3" y2="411.2"/>
		</g>
		<circle fill="#FFFFFF" cx="136.9" cy="379.1" r="3.6"/>
		<circle fill="#FFFFFF" cx="119.2" cy="427.7" r="3.6"/>
	</g>
	<g>
		<g>
			<line fill="none" stroke="#FFFFFF" stroke-width="8" stroke-miterlimit="10" x1="140" y1="318" x2="181.6" y2="342"/>
		</g>
		<circle fill="#FFFFFF" cx="174.9" cy="308.2" r="3.6"/>
		<circle fill="#FFFFFF" cx="149.1" cy="353" r="3.6"/>
	</g>
	<g>
		<g>
			<line fill="none" stroke="#FFFFFF" stroke-width="8" stroke-miterlimit="10" x1="188.6" y1="248.6" x2="225.3" y2="279.4"/>
		</g>
		<circle fill="#FFFFFF" cx="224.7" cy="245" r="3.6"/>
		<circle fill="#FFFFFF" cx="191.5" cy="284.6" r="3.6"/>
	</g>
	<g>
		<g>
			<line fill="none" stroke="#FFFFFF" stroke-width="8" stroke-miterlimit="10" x1="248.5" y1="188.6" x2="279.3" y2="225.4"/>
		</g>
		<circle fill="#FFFFFF" cx="284.7" cy="191.3" r="3.6"/>
		<circle fill="#FFFFFF" cx="245.1" cy="224.6" r="3.6"/>
	</g>
	<g>
		<g>
			<line fill="none" stroke="#FFFFFF" stroke-width="8" stroke-miterlimit="10" x1="317.9" y1="140" x2="341.9" y2="181.6"/>
		</g>
		<circle fill="#FFFFFF" cx="353.1" cy="148.9" r="3.6"/>
		<circle fill="#FFFFFF" cx="308.3" cy="174.8" r="3.6"/>
	</g>
	<g>
		<g>
			<line fill="none" stroke="#FFFFFF" stroke-width="8" stroke-miterlimit="10" x1="394.7" y1="104.1" x2="411.1" y2="149.2"/>
		</g>
		<circle fill="#FFFFFF" cx="427.8" cy="119.1" r="3.6"/>
		<circle fill="#FFFFFF" cx="379.2" cy="136.8" r="3.6"/>
	</g>
	<g>
		<g>
			<line fill="none" stroke="#FFFFFF" stroke-width="8" stroke-miterlimit="10" x1="476.6" y1="82.2" x2="484.9" y2="129.5"/>
		</g>
		<circle fill="#FFFFFF" cx="506.6" cy="102.6" r="3.6"/>
		<circle fill="#FFFFFF" cx="455.6" cy="111.6" r="3.6"/>
	</g>
	<g>
		<g>
			<line fill="none" stroke="#FFFFFF" stroke-width="8" stroke-miterlimit="10" x1="561" y1="74.8" x2="561" y2="122.8"/>
		</g>
		<circle fill="#FFFFFF" cx="587" cy="100.1" r="3.6"/>
		<circle fill="#FFFFFF" cx="535.3" cy="100.1" r="3.6"/>
	</g>
</g>
</svg>
