<?xml version="1.0" encoding="utf-8"?>
<!-- Generator: Adobe Illustrator 24.1.1, SVG Export Plug-In . SVG Version: 6.00 Build 0)  -->
<svg version="1.1" id="Layer_1" xmlns="http://www.w3.org/2000/svg" xmlns:xlink="http://www.w3.org/1999/xlink" x="0px" y="0px"
    viewBox="0 0 342 175" enable-background="new 0 0 342 175" xml:space="preserve">
<linearGradient id="SVGID_1_" gradientUnits="userSpaceOnUse" x1="0" y1="88.3617" x2="354.142" y2="88.3617" gradientTransform="matrix(1 0 0 -1 0 175.89)">
	<stop  offset="0" style="stop-color:#5936B4"/>
    <stop  offset="1" style="stop-color:#362A84"/>
</linearGradient>
    <path fill="url(#SVGID_1_)" d="M0,66.4C0,31.6,0,14.2,11.3,5.2c11.3-9,28.3-5.1,62.2,2.7l234.4,54.1c16.4,3.8,24.5,5.7,29.3,11.7
	c4.8,6,4.8,14.4,4.8,31.2v26c0,20.7,0,31.1-6.4,37.6c-6.4,6.4-16.8,6.4-37.6,6.4H44c-20.7,0-31.1,0-37.6-6.4C0,162.1,0,151.7,0,131
	V66.4z"/>
</svg>
