<?xml version="1.0" encoding="utf-8"?>
<!-- Generator: Adobe Illustrator 24.1.1, SVG Export Plug-In . SVG Version: 6.00 Build 0)  -->
<svg version="1.1" id="Layer_1" xmlns="http://www.w3.org/2000/svg" xmlns:xlink="http://www.w3.org/1999/xlink" x="0px" y="0px"
	 viewBox="0 0 100 100" enable-background="new 0 0 100 100" xml:space="preserve">
<g>
	
		<radialGradient id="SVGID_1_" cx="-130.9867" cy="32.0655" r="53.8071" gradientTransform="matrix(-1 0 0 1 -74.3271 0)" gradientUnits="userSpaceOnUse">
		<stop  offset="0" style="stop-color:#FFF8C7"/>
		<stop  offset="0.1559" style="stop-color:#FFE436"/>
		<stop  offset="1" style="stop-color:#FE761C"/>
	</radialGradient>
	<path fill="url(#SVGID_1_)" d="M21.8,49.8c0,15.7,12.7,28.3,28.3,28.3c15.7,0,28.3-12.7,28.3-28.3c0-15.7-12.7-28.3-28.3-28.3
		C34.5,21.5,21.8,34.2,21.8,49.8z"/>
	<g>
		
			<radialGradient id="SVGID_2_" cx="1096.6251" cy="-1876.0721" r="8.0769" gradientTransform="matrix(-0.8392 1.1536 -1.6186 -1.3126 -2055.0493 -3689.9971)" gradientUnits="userSpaceOnUse">
			<stop  offset="0" style="stop-color:#FFFFFF"/>
			<stop  offset="1" style="stop-color:#FFFFFF;stop-opacity:0"/>
		</radialGradient>
		<path fill="url(#SVGID_2_)" d="M54.5,46.9c-7.2-5.9-10-14.8-6.3-19.9c3.7-5.1,12.6-4.6,19.9,1.3c7.2,5.9,10,14.8,6.3,19.9
			C70.6,53.4,61.7,52.8,54.5,46.9z"/>
		
			<radialGradient id="SVGID_3_" cx="-2985.2271" cy="2916.4849" r="7.7936" gradientTransform="matrix(-1.1717 -1.1007 0.222 -0.7283 -4110.9922 -1097.0844)" gradientUnits="userSpaceOnUse">
			<stop  offset="0" style="stop-color:#FFFFFF"/>
			<stop  offset="1" style="stop-color:#FFFFFF;stop-opacity:0"/>
		</radialGradient>
		<path opacity="0.4" fill="url(#SVGID_3_)" d="M25.1,56.1c1-3.1,5.8-1.8,10.9,2.9c5,4.7,8.4,11.1,7.4,14.3c-1,3.1-5.8,1.8-10.9-2.9
			C27.5,65.6,24.2,59.2,25.1,56.1z"/>
	</g>
	<radialGradient id="SVGID_4_" cx="50.8031" cy="6.5333" r="9.3624" gradientUnits="userSpaceOnUse">
		<stop  offset="0" style="stop-color:#FFF8C7"/>
		<stop  offset="0.1559" style="stop-color:#FFE436"/>
		<stop  offset="1" style="stop-color:#FE761C"/>
	</radialGradient>
	<path fill="url(#SVGID_4_)" d="M53.6,13.1c0,1.9-1.5,3.4-3.4,3.4l0,0c-1.9,0-3.4-1.5-3.4-3.4V8.2c0-1.9,1.5-3.4,3.4-3.4l0,0
		c1.9,0,3.4,1.5,3.4,3.4V13.1z"/>
	
		<radialGradient id="SVGID_5_" cx="451.0701" cy="-230.1716" r="9.3627" gradientTransform="matrix(0.7071 -0.7071 0.7071 0.7071 -136.198 500.4805)" gradientUnits="userSpaceOnUse">
		<stop  offset="0" style="stop-color:#FFF8C7"/>
		<stop  offset="0.1559" style="stop-color:#FFE436"/>
		<stop  offset="1" style="stop-color:#FE761C"/>
	</radialGradient>
	<path fill="url(#SVGID_5_)" d="M26.6,21.4c1.3,1.3,1.3,3.5,0,4.9l0,0c-1.3,1.3-3.5,1.3-4.9,0l-3.4-3.4c-1.3-1.3-1.3-3.5,0-4.9l0,0
		c1.3-1.3,3.5-1.3,4.9,0L26.6,21.4z"/>
	
		<radialGradient id="SVGID_6_" cx="901.3891" cy="-114.7039" r="9.3623" gradientTransform="matrix(0 -1 1 0 121.5769 950.6016)" gradientUnits="userSpaceOnUse">
		<stop  offset="0" style="stop-color:#FFF8C7"/>
		<stop  offset="0.1559" style="stop-color:#FFE436"/>
		<stop  offset="1" style="stop-color:#FE761C"/>
	</radialGradient>
	<path fill="url(#SVGID_6_)" d="M13.5,46.4c1.9,0,3.4,1.5,3.4,3.4l0,0c0,1.9-1.5,3.4-3.4,3.4H8.6c-1.9,0-3.4-1.5-3.4-3.4l0,0
		c0-1.9,1.5-3.4,3.4-3.4H13.5z"/>
	
		<radialGradient id="SVGID_7_" cx="1138.2579" cy="285.5605" r="9.3628" gradientTransform="matrix(-0.7071 -0.7071 0.7071 -0.7071 622.0566 1086.7986)" gradientUnits="userSpaceOnUse">
		<stop  offset="0" style="stop-color:#FFF8C7"/>
		<stop  offset="0.1559" style="stop-color:#FFE436"/>
		<stop  offset="1" style="stop-color:#FE761C"/>
	</radialGradient>
	<path fill="url(#SVGID_7_)" d="M21.8,73.4c1.3-1.3,3.5-1.3,4.9,0l0,0c1.3,1.3,1.3,3.5,0,4.9l-3.4,3.4c-1.3,1.3-3.5,1.3-4.9,0l0,0
		c-1.3-1.3-1.3-3.5,0-4.9L21.8,73.4z"/>
	
		<radialGradient id="SVGID_8_" cx="1022.6239" cy="735.8826" r="9.3626" gradientTransform="matrix(-1 0 0 -1 1072.1758 829.0254)" gradientUnits="userSpaceOnUse">
		<stop  offset="0" style="stop-color:#FFF8C7"/>
		<stop  offset="0.1559" style="stop-color:#FFE436"/>
		<stop  offset="1" style="stop-color:#FE761C"/>
	</radialGradient>
	<path fill="url(#SVGID_8_)" d="M46.7,86.6c0-1.9,1.5-3.4,3.4-3.4l0,0c1.9,0,3.4,1.5,3.4,3.4l0,4.9c0,1.9-1.5,3.4-3.4,3.4l0,0
		c-1.9,0-3.4-1.5-3.4-3.4L46.7,86.6z"/>
	
		<radialGradient id="SVGID_9_" cx="622.5235" cy="972.7521" r="9.3629" gradientTransform="matrix(-0.7071 0.7071 -0.7071 -0.7071 1208.3767 328.5479)" gradientUnits="userSpaceOnUse">
		<stop  offset="0" style="stop-color:#FFF8C7"/>
		<stop  offset="0.1559" style="stop-color:#FFE436"/>
		<stop  offset="1" style="stop-color:#FE761C"/>
	</radialGradient>
	<path fill="url(#SVGID_9_)" d="M73.7,78.2c-1.3-1.3-1.3-3.5,0-4.9l0,0c1.3-1.3,3.5-1.3,4.9,0l3.4,3.4c1.3,1.3,1.3,3.5,0,4.9l0,0
		c-1.3,1.3-3.5,1.3-4.9,0L73.7,78.2z"/>
	
		<radialGradient id="SVGID_10_" cx="172.0368" cy="857.1222" r="9.3623" gradientTransform="matrix(0 1 -1 0 950.6055 -121.5742)" gradientUnits="userSpaceOnUse">
		<stop  offset="0" style="stop-color:#FFF8C7"/>
		<stop  offset="0.1559" style="stop-color:#FFE436"/>
		<stop  offset="1" style="stop-color:#FE761C"/>
	</radialGradient>
	<path fill="url(#SVGID_10_)" d="M86.9,53.3c-1.9,0-3.4-1.5-3.4-3.4l0,0c0-1.9,1.5-3.4,3.4-3.4h4.9c1.9,0,3.4,1.5,3.4,3.4l0,0
		c0,1.9-1.5,3.4-3.4,3.4H86.9z"/>
	
		<radialGradient id="SVGID_11_" cx="-64.6669" cy="457.02" r="9.3627" gradientTransform="matrix(0.7071 0.7071 -0.7071 0.7071 450.126 -257.7751)" gradientUnits="userSpaceOnUse">
		<stop  offset="0" style="stop-color:#FFF8C7"/>
		<stop  offset="0.1559" style="stop-color:#FFE436"/>
		<stop  offset="1" style="stop-color:#FE761C"/>
	</radialGradient>
	<path fill="url(#SVGID_11_)" d="M78.6,26.3c-1.3,1.3-3.5,1.3-4.9,0l0,0c-1.3-1.3-1.3-3.5,0-4.9l3.4-3.4c1.3-1.3,3.5-1.3,4.9,0l0,0
		c1.3,1.3,1.3,3.5,0,4.9L78.6,26.3z"/>
</g>
</svg>
