<?xml version="1.0" encoding="utf-8"?>
<!-- Generator: Adobe Illustrator 24.1.1, SVG Export Plug-In . SVG Version: 6.00 Build 0)  -->
<svg version="1.1" id="Layer_1" xmlns="http://www.w3.org/2000/svg" xmlns:xlink="http://www.w3.org/1999/xlink" x="0px" y="0px"
	 viewBox="0 0 100 100" enable-background="new 0 0 100 100" xml:space="preserve">
<g>
	<path fill="#FFFFFF" d="M50,98.7c-1.9,0-3.4-1.6-3.4-3.4v-6.1l-4.5,4.5c-0.7,0.7-1.5,1-2.4,1c-0.9,0-1.8-0.4-2.4-1
		c-1.3-1.3-1.3-3.5,0-4.9l9.4-9.4v-6L33.8,84c-0.6,0.5-1.4,0.8-2.2,0.8c-0.6,0-1.1-0.1-1.6-0.4c0,0,0,0,0,0
		c-1.2-0.7-1.8-2.1-1.6-3.5l2.7-16.4l-5.2,3l-3.4,12.8c-0.4,1.5-1.8,2.6-3.3,2.6c-0.3,0-0.6,0-0.9-0.1c-1.8-0.5-2.9-2.4-2.4-4.2
		l1.6-6.1l-5.3,3c-0.5,0.3-1.1,0.5-1.7,0.5c-1.2,0-2.3-0.6-3-1.7c-0.9-1.6-0.3-3.7,1.3-4.7l5.3-3L8,64.9c-1.8-0.5-2.9-2.4-2.4-4.2
		c0.4-1.5,1.8-2.6,3.3-2.6c0.3,0,0.6,0,0.9,0.1l12.8,3.4l5.2-3l-15.5-5.8c-1.3-0.5-2.2-1.7-2.2-3.1v0c0.1-1.4,0.9-2.6,2.2-3.1
		l15.5-5.8l-5.2-3L9.8,41.2c-0.3,0.1-0.6,0.1-0.9,0.1l0,0c-1.6,0-2.9-1.1-3.3-2.6C5.1,37,6.2,35.1,8,34.6l6.1-1.6l-5.3-3
		c-1.6-0.9-2.2-3-1.3-4.6c0.6-1,1.8-1.7,3-1.7c0.6,0,1.2,0.2,1.7,0.5l5.3,3L15.9,21c-0.5-1.8,0.6-3.7,2.4-4.2
		c0.3-0.1,0.6-0.1,0.9-0.1c1.6,0,2.9,1.1,3.3,2.6L26,32l5.2,3l-2.7-16.4c-0.2-1.4,0.4-2.7,1.6-3.5c0.5-0.3,1.1-0.4,1.6-0.4
		c0.8,0,1.6,0.3,2.2,0.8L46.6,26v-6l-9.4-9.4c-0.7-0.7-1-1.5-1-2.4c0-0.9,0.4-1.8,1-2.4c0.7-0.7,1.5-1,2.4-1c0.9,0,1.8,0.4,2.4,1
		l4.5,4.5V4.2c0-1.9,1.5-3.4,3.4-3.4c1.9,0,3.4,1.6,3.4,3.4v6.1l4.5-4.5c0.7-0.7,1.5-1,2.4-1s1.8,0.4,2.4,1c0.7,0.7,1,1.5,1,2.4
		c0,0.9-0.4,1.8-1,2.4L53.4,20v6l12.8-10.5c0.6-0.5,1.4-0.8,2.2-0.8c0.6,0,1.1,0.1,1.6,0.4c1.2,0.8,1.8,2.1,1.6,3.5L68.9,35l5.2-3
		l3.4-12.8c0.4-1.5,1.8-2.6,3.3-2.6c0.3,0,0.6,0,0.9,0.1c1.8,0.5,2.9,2.4,2.4,4.2l-1.6,6.1l5.3-3c0.5-0.3,1.1-0.5,1.7-0.5
		c1.2,0,2.3,0.6,3,1.7c0.9,1.6,0.3,3.7-1.3,4.7l-5.3,3l6.1,1.6c1.8,0.5,2.9,2.4,2.4,4.2c-0.4,1.5-1.8,2.6-3.3,2.6
		c-0.3,0-0.6,0-0.9-0.1l-12.8-3.4l-5.2,3l15.5,5.8c1.3,0.5,2.2,1.7,2.2,3.1c-0.1,1.4-0.9,2.6-2.2,3.1l-15.5,5.8l5.2,3l12.8-3.4
		c0.3-0.1,0.6-0.1,0.9-0.1c1.6,0,2.9,1.1,3.3,2.6c0.5,1.8-0.6,3.7-2.4,4.2l-6.1,1.6l5.3,3c1.6,0.9,2.2,3,1.3,4.6
		c-0.6,1-1.8,1.7-3,1.7l0,0c-0.6,0-1.2-0.2-1.7-0.5l-5.3-3l1.6,6.1c0.5,1.8-0.6,3.7-2.4,4.2c-0.3,0.1-0.6,0.1-0.9,0.1
		c-1.6,0-2.9-1.1-3.3-2.6l-3.4-12.8l-5.2-3l2.7,16.4c0.2,1.4-0.4,2.7-1.6,3.5c-0.5,0.3-1.1,0.4-1.6,0.4c-0.8,0-1.6-0.3-2.2-0.8
		L53.4,73.5v6l9.4,9.4c1.3,1.3,1.3,3.5,0,4.9c-0.7,0.7-1.5,1-2.4,1s-1.8-0.4-2.4-1l-4.5-4.5v6.1C53.4,97.2,51.9,98.7,50,98.7
		L50,98.7C50,98.7,50,98.7,50,98.7z M36.9,72.6l9.8-8v-8.9l-7.7,4.5L36.9,72.6z M63.2,72.6l-2.1-12.5l-7.7-4.5v8.9L63.2,72.6z
		 M64.5,54.2l11.9-4.5l-11.9-4.5l-7.7,4.5L64.5,54.2z M35.5,54.2l7.7-4.5l-7.7-4.5l-11.9,4.5L35.5,54.2z M53.4,43.9l7.7-4.5
		l2.1-12.5l-9.8,8V43.9z M46.6,43.9V35l-9.8-8l2.1,12.5L46.6,43.9z"/>
	<linearGradient id="SVGID_1_" gradientUnits="userSpaceOnUse" x1="12.9708" y1="81.5471" x2="86.9662" y2="19.4576">
		<stop  offset="0" style="stop-color:#D8F1F3"/>
		<stop  offset="0.6112" style="stop-color:#EEF9FA"/>
		<stop  offset="1" style="stop-color:#FFFFFF"/>
	</linearGradient>
	<path fill="url(#SVGID_1_)" d="M50,99.5c-1.9,0-3.4-1.6-3.4-3.4V90l-4.5,4.5c-0.7,0.7-1.5,1-2.4,1c-0.9,0-1.8-0.4-2.4-1
		c-1.3-1.3-1.3-3.5,0-4.9l9.4-9.4v-6L33.8,84.8c-0.6,0.5-1.4,0.8-2.2,0.8c-0.6,0-1.1-0.1-1.6-0.4c0,0,0,0,0,0
		c-1.2-0.7-1.8-2.1-1.6-3.5l2.7-16.4l-5.2,3l-3.4,12.8c-0.4,1.5-1.8,2.6-3.3,2.6c-0.3,0-0.6,0-0.9-0.1c-1.8-0.5-2.9-2.4-2.4-4.2
		l1.6-6.1l-5.3,3c-0.5,0.3-1.1,0.5-1.7,0.5c-1.2,0-2.3-0.6-3-1.7c-0.9-1.6-0.3-3.7,1.3-4.7l5.3-3L8,65.7c-1.8-0.5-2.9-2.4-2.4-4.2
		c0.4-1.5,1.8-2.6,3.3-2.6c0.3,0,0.6,0,0.9,0.1l12.8,3.4l5.2-3l-15.5-5.8c-1.3-0.5-2.2-1.7-2.2-3.1c0,0,0,0,0,0
		c0.1-1.4,0.9-2.6,2.2-3.1l15.5-5.8l-5.2-3L9.8,42c-0.3,0.1-0.6,0.1-0.9,0.1l0,0c-1.6,0-2.9-1.1-3.3-2.6C5,37.7,6.1,35.8,8,35.3
		l6.1-1.6l-5.3-3c-1.6-0.9-2.2-3-1.3-4.6c0.6-1,1.8-1.7,3-1.7c0.6,0,1.2,0.2,1.7,0.5l5.3,3l-1.6-6.1c-0.5-1.8,0.6-3.7,2.4-4.2
		c0.3-0.1,0.6-0.1,0.9-0.1c1.6,0,2.9,1.1,3.3,2.6l3.4,12.8l5.2,3l-2.7-16.4c-0.2-1.4,0.4-2.7,1.6-3.5c0.5-0.3,1.1-0.4,1.6-0.4
		c0.8,0,1.6,0.3,2.2,0.8l12.8,10.5v-6l-9.4-9.4c-0.7-0.7-1-1.5-1-2.4c0-0.9,0.4-1.8,1-2.4c0.7-0.7,1.5-1,2.4-1c0.9,0,1.8,0.4,2.4,1
		l4.5,4.5V4.9c0-1.9,1.5-3.4,3.4-3.4c1.9,0,3.4,1.6,3.4,3.4V11l4.5-4.5c0.7-0.7,1.5-1,2.4-1c0.9,0,1.8,0.4,2.4,1
		c0.7,0.7,1,1.5,1,2.4c0,0.9-0.4,1.8-1,2.4l-9.4,9.4v6l12.8-10.5c0.6-0.5,1.4-0.8,2.2-0.8c0.6,0,1.1,0.1,1.6,0.4
		c1.2,0.8,1.8,2.1,1.6,3.5l-2.7,16.4l5.2-3l3.4-12.8c0.4-1.5,1.8-2.6,3.3-2.6c0.3,0,0.6,0,0.9,0.1c1.8,0.5,2.9,2.4,2.4,4.2l-1.6,6.1
		l5.3-3c0.5-0.3,1.1-0.5,1.7-0.5c1.2,0,2.3,0.6,3,1.7c0.9,1.6,0.3,3.7-1.3,4.7l-5.3,3l6.1,1.6c1.8,0.5,2.9,2.4,2.4,4.2
		c-0.4,1.5-1.8,2.6-3.3,2.6c-0.3,0-0.6,0-0.9-0.1l-12.8-3.4l-5.2,3l15.5,5.8c1.3,0.5,2.2,1.7,2.2,3.1c-0.1,1.4-0.9,2.6-2.2,3.1
		l-15.5,5.8l5.2,3L90.2,59c0.3-0.1,0.6-0.1,0.9-0.1c1.6,0,2.9,1.1,3.3,2.6c0.5,1.8-0.6,3.7-2.4,4.2l-6.1,1.6l5.3,3
		c1.6,0.9,2.2,3,1.3,4.6c-0.6,1-1.8,1.7-3,1.7l0,0c-0.6,0-1.2-0.2-1.7-0.5l-5.3-3l1.6,6.1c0.5,1.8-0.6,3.7-2.4,4.2
		c-0.3,0.1-0.6,0.1-0.9,0.1c-1.6,0-2.9-1.1-3.3-2.6L74,68.3l-5.2-3l2.7,16.4c0.2,1.4-0.4,2.7-1.6,3.5c-0.5,0.3-1.1,0.4-1.6,0.4
		c-0.8,0-1.6-0.3-2.2-0.8L53.4,74.2v6l9.4,9.4c1.3,1.3,1.3,3.5,0,4.9c-0.7,0.7-1.5,1-2.4,1c-0.9,0-1.8-0.4-2.4-1L53.4,90v6.1
		C53.4,97.9,51.8,99.5,50,99.5C50,99.5,50,99.5,50,99.5C50,99.5,50,99.5,50,99.5z M36.8,73.3l9.8-8v-8.9l-7.7,4.5L36.8,73.3z
		 M63.1,73.3l-2.1-12.5l-7.7-4.5v8.9L63.1,73.3z M64.5,55l11.9-4.5L64.5,46l-7.7,4.5L64.5,55z M35.5,55l7.7-4.5L35.5,46l-11.9,4.5
		L35.5,55z M53.4,44.6l7.7-4.5l2.1-12.5l-9.8,8V44.6z M46.6,44.6v-8.9l-9.8-8l2.1,12.5L46.6,44.6z"/>
</g>
</svg>
