<?xml version="1.0" encoding="utf-8"?>
<!-- Generator: Adobe Illustrator 24.1.1, SVG Export Plug-In . SVG Version: 6.00 Build 0)  -->
<svg version="1.1" id="Layer_1" xmlns="http://www.w3.org/2000/svg" xmlns:xlink="http://www.w3.org/1999/xlink" x="0px" y="0px"
	 viewBox="0 0 100 100" enable-background="new 0 0 100 100" xml:space="preserve">
<g>
	<g>
		<g>
			
				<radialGradient id="SVGID_1_" cx="1347.4464" cy="15.8038" r="65.5088" gradientTransform="matrix(-1 0 0 1 1385.1875 0)" gradientUnits="userSpaceOnUse">
				<stop  offset="0" style="stop-color:#BAD0D6"/>
				<stop  offset="0.198" style="stop-color:#9BBAC2"/>
				<stop  offset="1" style="stop-color:#5D8BB8"/>
			</radialGradient>
			<path fill="url(#SVGID_1_)" d="M47.6,8.6c12.4,0,22.8,8.6,25.6,20.2c2.3-1.1,4.8-1.7,7.5-1.7c9.5,0,17.2,7.7,17.2,17.2
				c0,9.5-7.7,17.2-17.2,17.2H47.6c-14.6,0-26.4-11.8-26.4-26.4C21.2,20.4,33.1,8.6,47.6,8.6z"/>
			
				<radialGradient id="SVGID_2_" cx="521.0623" cy="-2372.2422" r="7.687" gradientTransform="matrix(0.8392 1.1536 1.6186 -1.3126 3440.2368 -3689.9971)" gradientUnits="userSpaceOnUse">
				<stop  offset="0" style="stop-color:#FFFFFF"/>
				<stop  offset="1" style="stop-color:#FFFFFF;stop-opacity:0"/>
			</radialGradient>
			<path opacity="0.5" fill="url(#SVGID_2_)" d="M44.3,33.8c6.9-5.6,9.6-14.1,6-19c-3.6-4.9-12-4.3-18.9,1.2c-6.9,5.6-9.5,14.1-6,19
				C28.9,39.9,37.4,39.3,44.3,33.8z"/>
			
				<radialGradient id="SVGID_3_" cx="543.7559" cy="-2360.8547" r="4.225" gradientTransform="matrix(0.8392 1.1536 1.6186 -1.3126 3440.2368 -3689.9971)" gradientUnits="userSpaceOnUse">
				<stop  offset="0" style="stop-color:#FFFFFF"/>
				<stop  offset="1" style="stop-color:#FFFFFF;stop-opacity:0"/>
			</radialGradient>
			<path opacity="0.3" fill="url(#SVGID_3_)" d="M78.8,41c3.8-3.1,5.2-7.7,3.3-10.4c-2-2.7-6.6-2.4-10.4,0.7
				c-3.8,3.1-5.2,7.7-3.3,10.4C70.4,44.4,75,44.1,78.8,41z"/>
			
				<radialGradient id="SVGID_4_" cx="1467.7717" cy="79.8811" r="4.4175" gradientTransform="matrix(-0.7056 -0.4583 -1.3993 1.8312 1236.7561 578.0741)" gradientUnits="userSpaceOnUse">
				<stop  offset="0" style="stop-color:#FFFFFF"/>
				<stop  offset="1" style="stop-color:#FFFFFF;stop-opacity:0"/>
			</radialGradient>
			<path opacity="0.2" fill="url(#SVGID_4_)" d="M87.2,47.7c4.2-4.2,8.4-5.8,9.6-3.7c1.1,2.2-1.3,7.3-5.5,11.5
				c-4.2,4.2-8.4,5.8-9.6,3.7C80.6,57,83,51.9,87.2,47.7z"/>
		</g>
		<g>
			
				<radialGradient id="SVGID_5_" cx="1366.5226" cy="30.0688" r="65.5078" gradientTransform="matrix(-1 0 0 1 1385.1875 0)" gradientUnits="userSpaceOnUse">
				<stop  offset="0" style="stop-color:#FFFFFF"/>
				<stop  offset="0.198" style="stop-color:#D9F7FF"/>
				<stop  offset="1" style="stop-color:#89C0F5"/>
			</radialGradient>
			<path fill="url(#SVGID_5_)" d="M28.6,22.8c12.4,0,22.8,8.6,25.6,20.2c2.3-1.1,4.8-1.7,7.5-1.7c9.5,0,17.2,7.7,17.2,17.2
				s-7.7,17.2-17.2,17.2H28.6C14,75.6,2.2,63.8,2.2,49.2S14,22.8,28.6,22.8z"/>
			
				<radialGradient id="SVGID_6_" cx="520.4057" cy="-2383.6868" r="7.6869" gradientTransform="matrix(0.8392 1.1536 1.6186 -1.3126 3440.2368 -3689.9971)" gradientUnits="userSpaceOnUse">
				<stop  offset="0" style="stop-color:#FFFFFF"/>
				<stop  offset="1" style="stop-color:#FFFFFF;stop-opacity:0"/>
			</radialGradient>
			<path fill="url(#SVGID_6_)" d="M25.2,48c6.9-5.6,9.6-14.1,6-19c-3.6-4.9-12-4.3-18.9,1.2c-6.9,5.6-9.5,14.1-6,19
				C9.8,54.2,18.3,53.6,25.2,48z"/>
			
				<radialGradient id="SVGID_7_" cx="543.0994" cy="-2372.2988" r="4.2244" gradientTransform="matrix(0.8392 1.1536 1.6186 -1.3126 3440.2368 -3689.9971)" gradientUnits="userSpaceOnUse">
				<stop  offset="0" style="stop-color:#FFFFFF"/>
				<stop  offset="1" style="stop-color:#FFFFFF;stop-opacity:0"/>
			</radialGradient>
			<path opacity="0.4" fill="url(#SVGID_7_)" d="M59.7,55.3c3.8-3.1,5.3-7.7,3.3-10.4c-2-2.7-6.6-2.4-10.4,0.7
				c-3.8,3.1-5.2,7.7-3.3,10.4C51.3,58.6,56,58.3,59.7,55.3z"/>
			
				<radialGradient id="SVGID_8_" cx="1487.0326" cy="102.0372" r="4.4174" gradientTransform="matrix(-0.7056 -0.4583 -1.3993 1.8312 1262.2737 560.5942)" gradientUnits="userSpaceOnUse">
				<stop  offset="0" style="stop-color:#FFFFFF"/>
				<stop  offset="1" style="stop-color:#FFFFFF;stop-opacity:0"/>
			</radialGradient>
			<path opacity="0.2" fill="url(#SVGID_8_)" d="M68.1,61.9c4.2-4.2,8.4-5.8,9.6-3.7c1.1,2.2-1.3,7.3-5.5,11.5
				c-4.2,4.2-8.4,5.8-9.6,3.7C61.5,71.3,64,66.2,68.1,61.9z"/>
		</g>
	</g>
	<g>
		<g>
			
				<radialGradient id="SVGID_9_" cx="-249.8414" cy="6.5944" r="9.1925" gradientTransform="matrix(0.866 0.5 -0.5 0.866 241.0088 207.5015)" gradientUnits="userSpaceOnUse">
				<stop  offset="0" style="stop-color:#D4F6FF"/>
				<stop  offset="0.198" style="stop-color:#D9F7FF"/>
				<stop  offset="1" style="stop-color:#89C0F5"/>
			</radialGradient>
			<path fill="url(#SVGID_9_)" d="M26.5,89.2c-1.1,1.8-3.4,2.5-5.2,1.4c-1.8-1.1-2.5-3.4-1.4-5.2c1.1-1.8,7.6-5.5,7.6-5.5
				S27.5,87.3,26.5,89.2z"/>
			
				<radialGradient id="SVGID_10_" cx="1216.9358" cy="-1746.1786" r="1.44" gradientTransform="matrix(-1.3036 0.5794 -0.7454 -1.946 306.6301 -4015.4641)" gradientUnits="userSpaceOnUse">
				<stop  offset="0" style="stop-color:#FFFFFF"/>
				<stop  offset="1" style="stop-color:#FFFFFF;stop-opacity:0"/>
			</radialGradient>
			<path fill="url(#SVGID_10_)" d="M20,88.5c-0.6-1.5-0.2-3.2,0.8-3.6c1-0.5,2.4,0.4,3,2c0.6,1.5,0.2,3.2-0.8,3.6
				C21.9,91,20.6,90.1,20,88.5z"/>
		</g>
		<g>
			
				<radialGradient id="SVGID_11_" cx="-231.6128" cy="-3.9311" r="9.1925" gradientTransform="matrix(0.866 0.5 -0.5 0.866 241.0088 207.5015)" gradientUnits="userSpaceOnUse">
				<stop  offset="0" style="stop-color:#D4F6FF"/>
				<stop  offset="0.198" style="stop-color:#D9F7FF"/>
				<stop  offset="1" style="stop-color:#89C0F5"/>
			</radialGradient>
			<path fill="url(#SVGID_11_)" d="M47.5,89.2c-1.1,1.8-3.4,2.5-5.2,1.4c-1.8-1.1-2.5-3.4-1.4-5.2c1.1-1.8,7.6-5.5,7.6-5.5
				S48.6,87.3,47.5,89.2z"/>
			
				<radialGradient id="SVGID_12_" cx="1203.1378" cy="-1750.2869" r="1.4397" gradientTransform="matrix(-1.3036 0.5794 -0.7454 -1.946 306.6301 -4015.4641)" gradientUnits="userSpaceOnUse">
				<stop  offset="0" style="stop-color:#FFFFFF"/>
				<stop  offset="1" style="stop-color:#FFFFFF;stop-opacity:0"/>
			</radialGradient>
			<path fill="url(#SVGID_12_)" d="M41,88.5c-0.6-1.5-0.2-3.2,0.8-3.6c1-0.5,2.4,0.4,2.9,2c0.6,1.5,0.2,3.2-0.8,3.6
				C42.9,91,41.6,90.1,41,88.5z"/>
		</g>
		<g>
			
				<radialGradient id="SVGID_13_" cx="-213.3826" cy="-14.4564" r="9.1925" gradientTransform="matrix(0.866 0.5 -0.5 0.866 241.0088 207.5015)" gradientUnits="userSpaceOnUse">
				<stop  offset="0" style="stop-color:#D4F6FF"/>
				<stop  offset="0.198" style="stop-color:#D9F7FF"/>
				<stop  offset="1" style="stop-color:#89C0F5"/>
			</radialGradient>
			<path fill="url(#SVGID_13_)" d="M68.6,89.2c-1.1,1.8-3.4,2.5-5.2,1.4c-1.8-1.1-2.5-3.4-1.4-5.2c1.1-1.8,7.6-5.5,7.6-5.5
				S69.6,87.3,68.6,89.2z"/>
			
				<radialGradient id="SVGID_14_" cx="1189.3394" cy="-1754.3951" r="1.4397" gradientTransform="matrix(-1.3036 0.5794 -0.7454 -1.946 306.6301 -4015.4641)" gradientUnits="userSpaceOnUse">
				<stop  offset="0" style="stop-color:#FFFFFF"/>
				<stop  offset="1" style="stop-color:#FFFFFF;stop-opacity:0"/>
			</radialGradient>
			<path fill="url(#SVGID_14_)" d="M62.1,88.5c-0.6-1.5-0.2-3.2,0.8-3.6c1-0.5,2.4,0.4,2.9,2c0.6,1.5,0.2,3.2-0.8,3.6
				C64,91,62.6,90.1,62.1,88.5z"/>
		</g>
	</g>
	<g>
		<g>
			
				<radialGradient id="SVGID_15_" cx="-245.4727" cy="-9.0301" r="13.0686" gradientTransform="matrix(0.866 0.5 -0.5 0.866 241.0088 207.5015)" gradientUnits="userSpaceOnUse">
				<stop  offset="0" style="stop-color:#D4F6FF"/>
				<stop  offset="0.198" style="stop-color:#D9F7FF"/>
				<stop  offset="1" style="stop-color:#89C0F5"/>
			</radialGradient>
			<path fill="url(#SVGID_15_)" d="M40.2,78.2c-1.5,2.6-4.8,3.5-7.4,2c-2.6-1.5-3.5-4.8-2-7.4c1.5-2.6,10.8-7.8,10.8-7.8
				S41.7,75.6,40.2,78.2z"/>
			
				<radialGradient id="SVGID_16_" cx="1206.2881" cy="-1743.3881" r="2.047" gradientTransform="matrix(-1.3036 0.5794 -0.7454 -1.946 306.6301 -4015.4641)" gradientUnits="userSpaceOnUse">
				<stop  offset="0" style="stop-color:#FFFFFF"/>
				<stop  offset="1" style="stop-color:#FFFFFF;stop-opacity:0"/>
			</radialGradient>
			<path fill="url(#SVGID_16_)" d="M31,77.3c-0.8-2.2-0.3-4.5,1.1-5.2c1.5-0.7,3.4,0.6,4.2,2.8c0.8,2.2,0.3,4.5-1.1,5.2
				C33.7,80.7,31.8,79.5,31,77.3z"/>
		</g>
		<g>
			
				<radialGradient id="SVGID_17_" cx="-225.8029" cy="-20.3883" r="13.0679" gradientTransform="matrix(0.866 0.5 -0.5 0.866 241.0088 207.5015)" gradientUnits="userSpaceOnUse">
				<stop  offset="0" style="stop-color:#D4F6FF"/>
				<stop  offset="0.198" style="stop-color:#D9F7FF"/>
				<stop  offset="1" style="stop-color:#89C0F5"/>
			</radialGradient>
			<path fill="url(#SVGID_17_)" d="M62.9,78.2c-1.5,2.6-4.8,3.5-7.4,2c-2.6-1.5-3.5-4.8-2-7.4c1.5-2.6,10.8-7.8,10.8-7.8
				S64.4,75.6,62.9,78.2z"/>
			
				<radialGradient id="SVGID_18_" cx="1191.3992" cy="-1747.8213" r="2.0465" gradientTransform="matrix(-1.3036 0.5794 -0.7454 -1.946 306.6301 -4015.4641)" gradientUnits="userSpaceOnUse">
				<stop  offset="0" style="stop-color:#FFFFFF"/>
				<stop  offset="1" style="stop-color:#FFFFFF;stop-opacity:0"/>
			</radialGradient>
			<path fill="url(#SVGID_18_)" d="M53.7,77.3c-0.8-2.2-0.3-4.5,1.1-5.2c1.5-0.7,3.4,0.6,4.2,2.8c0.8,2.2,0.3,4.5-1.1,5.2
				C56.4,80.7,54.5,79.5,53.7,77.3z"/>
		</g>
	</g>
</g>
</svg>
