<?xml version="1.0" encoding="utf-8"?>
<!-- Generator: Adobe Illustrator 24.1.1, SVG Export Plug-In . SVG Version: 6.00 Build 0)  -->
<svg version="1.1" id="Layer_1" xmlns="http://www.w3.org/2000/svg" xmlns:xlink="http://www.w3.org/1999/xlink" x="0px" y="0px"
	 viewBox="0 0 100 100" enable-background="new 0 0 100 100" xml:space="preserve">
<g>
	<g>
		<g>
			
				<radialGradient id="SVGID_1_" cx="1347.4259" cy="15.8605" r="65.3996" gradientTransform="matrix(-1 0 0 1 1385.1875 0)" gradientUnits="userSpaceOnUse">
				<stop  offset="0" style="stop-color:#BAD0D6"/>
				<stop  offset="0.198" style="stop-color:#9BBAC2"/>
				<stop  offset="1" style="stop-color:#5D8BB8"/>
			</radialGradient>
			<path fill="url(#SVGID_1_)" d="M47.6,8.6c12.4,0,22.8,8.6,25.6,20.1c2.3-1.1,4.8-1.7,7.4-1.7c9.5,0,17.1,7.7,17.1,17.1
				c0,9.5-7.7,17.1-17.1,17.1h-33c-14.5,0-26.3-11.8-26.3-26.3C21.3,20.4,33.1,8.6,47.6,8.6z"/>
			
				<radialGradient id="SVGID_2_" cx="521.0939" cy="-2372.2458" r="7.6742" gradientTransform="matrix(0.8392 1.1536 1.6186 -1.3126 3440.2368 -3689.9971)" gradientUnits="userSpaceOnUse">
				<stop  offset="0" style="stop-color:#FFFFFF"/>
				<stop  offset="1" style="stop-color:#FFFFFF;stop-opacity:0"/>
			</radialGradient>
			<path opacity="0.5" fill="url(#SVGID_2_)" d="M44.3,33.8c6.9-5.6,9.5-14,6-18.9c-3.6-4.9-12-4.3-18.9,1.2c-6.9,5.6-9.5,14-6,18.9
				C29,39.9,37.4,39.4,44.3,33.8z"/>
			
				<radialGradient id="SVGID_3_" cx="543.7497" cy="-2360.8777" r="4.2179" gradientTransform="matrix(0.8392 1.1536 1.6186 -1.3126 3440.2368 -3689.9971)" gradientUnits="userSpaceOnUse">
				<stop  offset="0" style="stop-color:#FFFFFF"/>
				<stop  offset="1" style="stop-color:#FFFFFF;stop-opacity:0"/>
			</radialGradient>
			<path opacity="0.3" fill="url(#SVGID_3_)" d="M78.8,41c3.8-3.1,5.2-7.7,3.3-10.4c-2-2.7-6.6-2.4-10.4,0.7
				c-3.8,3.1-5.2,7.7-3.3,10.4C70.4,44.4,75,44.1,78.8,41z"/>
			
				<radialGradient id="SVGID_4_" cx="1467.8475" cy="79.8911" r="4.4101" gradientTransform="matrix(-0.7056 -0.4583 -1.3993 1.8312 1236.7582 578.0876)" gradientUnits="userSpaceOnUse">
				<stop  offset="0" style="stop-color:#FFFFFF"/>
				<stop  offset="1" style="stop-color:#FFFFFF;stop-opacity:0"/>
			</radialGradient>
			<path opacity="0.2" fill="url(#SVGID_4_)" d="M87.1,47.7c4.1-4.2,8.4-5.8,9.6-3.7c1.1,2.2-1.3,7.3-5.4,11.5
				c-4.1,4.2-8.4,5.8-9.6,3.7C80.6,57,83,51.9,87.1,47.7z"/>
		</g>
		<g>
			
				<radialGradient id="SVGID_5_" cx="1366.4702" cy="30.1017" r="65.3986" gradientTransform="matrix(-1 0 0 1 1385.1875 0)" gradientUnits="userSpaceOnUse">
				<stop  offset="0" style="stop-color:#FFFFFF"/>
				<stop  offset="0.198" style="stop-color:#D9F7FF"/>
				<stop  offset="1" style="stop-color:#89C0F5"/>
			</radialGradient>
			<path fill="url(#SVGID_5_)" d="M28.6,22.9c12.4,0,22.8,8.6,25.6,20.1c2.3-1.1,4.8-1.7,7.4-1.7c9.5,0,17.1,7.7,17.1,17.1
				s-7.7,17.1-17.1,17.1h-33C14,75.6,2.3,63.8,2.3,49.2S14,22.9,28.6,22.9z"/>
			
				<radialGradient id="SVGID_6_" cx="520.4385" cy="-2383.6714" r="7.674" gradientTransform="matrix(0.8392 1.1536 1.6186 -1.3126 3440.2368 -3689.9971)" gradientUnits="userSpaceOnUse">
				<stop  offset="0" style="stop-color:#FFFFFF"/>
				<stop  offset="1" style="stop-color:#FFFFFF;stop-opacity:0"/>
			</radialGradient>
			<path fill="url(#SVGID_6_)" d="M25.2,48c6.9-5.6,9.5-14,6-18.9c-3.6-4.9-12-4.3-18.9,1.2c-6.9,5.6-9.5,14-6,18.9
				C9.9,54.2,18.4,53.6,25.2,48z"/>
			
				<radialGradient id="SVGID_7_" cx="543.0944" cy="-2372.3025" r="4.2173" gradientTransform="matrix(0.8392 1.1536 1.6186 -1.3126 3440.2368 -3689.9971)" gradientUnits="userSpaceOnUse">
				<stop  offset="0" style="stop-color:#FFFFFF"/>
				<stop  offset="1" style="stop-color:#FFFFFF;stop-opacity:0"/>
			</radialGradient>
			<path opacity="0.4" fill="url(#SVGID_7_)" d="M59.7,55.3c3.8-3.1,5.2-7.7,3.3-10.4c-2-2.7-6.6-2.4-10.4,0.7
				c-3.8,3.1-5.2,7.7-3.3,10.4C51.3,58.6,56,58.3,59.7,55.3z"/>
			
				<radialGradient id="SVGID_8_" cx="1487.0763" cy="102.0102" r="4.4101" gradientTransform="matrix(-0.7056 -0.4583 -1.3993 1.8312 1262.2333 560.6369)" gradientUnits="userSpaceOnUse">
				<stop  offset="0" style="stop-color:#FFFFFF"/>
				<stop  offset="1" style="stop-color:#FFFFFF;stop-opacity:0"/>
			</radialGradient>
			<path opacity="0.2" fill="url(#SVGID_8_)" d="M68.1,61.9c4.1-4.2,8.4-5.8,9.6-3.7c1.1,2.2-1.3,7.3-5.4,11.5
				c-4.1,4.2-8.4,5.8-9.6,3.7C61.5,71.3,63.9,66.1,68.1,61.9z"/>
		</g>
	</g>
	<g>
		<g>
			
				<radialGradient id="SVGID_9_" cx="-248.8481" cy="5.9468" r="9.1772" gradientTransform="matrix(0.866 0.5 -0.5 0.866 241.0088 207.5015)" gradientUnits="userSpaceOnUse">
				<stop  offset="0" style="stop-color:#D4F6FF"/>
				<stop  offset="0.198" style="stop-color:#D9F7FF"/>
				<stop  offset="1" style="stop-color:#89C0F5"/>
			</radialGradient>
			<path fill="url(#SVGID_9_)" d="M27.6,89.1c-1.1,1.8-3.4,2.4-5.2,1.4c-1.8-1.1-2.4-3.4-1.4-5.2c1.1-1.8,7.6-5.5,7.6-5.5
				S28.7,87.3,27.6,89.1z"/>
			
				<radialGradient id="SVGID_10_" cx="1216.1443" cy="-1746.3818" r="1.4376" gradientTransform="matrix(-1.3036 0.5794 -0.7454 -1.946 306.6301 -4015.4641)" gradientUnits="userSpaceOnUse">
				<stop  offset="0" style="stop-color:#FFFFFF"/>
				<stop  offset="1" style="stop-color:#FFFFFF;stop-opacity:0"/>
			</radialGradient>
			<path fill="url(#SVGID_10_)" d="M21.1,88.5c-0.6-1.5-0.2-3.2,0.8-3.6c1-0.5,2.4,0.4,2.9,2c0.6,1.5,0.2,3.2-0.8,3.6
				C23.1,90.9,21.7,90,21.1,88.5z"/>
		</g>
		<g>
			
				<radialGradient id="SVGID_11_" cx="-235.0346" cy="-2.0295" r="9.1772" gradientTransform="matrix(0.866 0.5 -0.5 0.866 241.0088 207.5015)" gradientUnits="userSpaceOnUse">
				<stop  offset="0" style="stop-color:#D4F6FF"/>
				<stop  offset="0.198" style="stop-color:#D9F7FF"/>
				<stop  offset="1" style="stop-color:#89C0F5"/>
			</radialGradient>
			<path fill="url(#SVGID_11_)" d="M43.6,89.1c-1.1,1.8-3.4,2.4-5.2,1.4c-1.8-1.1-2.4-3.4-1.4-5.2c1.1-1.8,7.6-5.5,7.6-5.5
				S44.6,87.3,43.6,89.1z"/>
			
				<radialGradient id="SVGID_12_" cx="1205.6882" cy="-1749.495" r="1.4373" gradientTransform="matrix(-1.3036 0.5794 -0.7454 -1.946 306.6301 -4015.4641)" gradientUnits="userSpaceOnUse">
				<stop  offset="0" style="stop-color:#FFFFFF"/>
				<stop  offset="1" style="stop-color:#FFFFFF;stop-opacity:0"/>
			</radialGradient>
			<path fill="url(#SVGID_12_)" d="M37.1,88.5c-0.6-1.5-0.2-3.2,0.8-3.6c1-0.5,2.4,0.4,2.9,2c0.6,1.5,0.2,3.2-0.8,3.6
				C39,90.9,37.7,90,37.1,88.5z"/>
		</g>
		<g>
			
				<radialGradient id="SVGID_13_" cx="-221.2195" cy="-10.0057" r="9.1771" gradientTransform="matrix(0.866 0.5 -0.5 0.866 241.0088 207.5015)" gradientUnits="userSpaceOnUse">
				<stop  offset="0" style="stop-color:#D4F6FF"/>
				<stop  offset="0.198" style="stop-color:#D9F7FF"/>
				<stop  offset="1" style="stop-color:#89C0F5"/>
			</radialGradient>
			<path fill="url(#SVGID_13_)" d="M59.5,89.1c-1.1,1.8-3.4,2.4-5.2,1.4c-1.8-1.1-2.4-3.4-1.4-5.2c1.1-1.8,7.6-5.5,7.6-5.5
				S60.6,87.3,59.5,89.1z"/>
			
				<radialGradient id="SVGID_14_" cx="1195.2316" cy="-1752.6084" r="1.4373" gradientTransform="matrix(-1.3036 0.5794 -0.7454 -1.946 306.6301 -4015.4641)" gradientUnits="userSpaceOnUse">
				<stop  offset="0" style="stop-color:#FFFFFF"/>
				<stop  offset="1" style="stop-color:#FFFFFF;stop-opacity:0"/>
			</radialGradient>
			<path fill="url(#SVGID_14_)" d="M53,88.5c-0.6-1.5-0.2-3.2,0.8-3.6c1-0.5,2.4,0.4,2.9,2c0.6,1.5,0.2,3.2-0.8,3.6
				C55,90.9,53.6,90,53,88.5z"/>
		</g>
	</g>
</g>
</svg>
