<?xml version="1.0" encoding="utf-8"?>
<!-- Generator: Adobe Illustrator 24.1.1, SVG Export Plug-In . SVG Version: 6.00 Build 0)  -->
<svg version="1.1" id="Layer_1" xmlns="http://www.w3.org/2000/svg" xmlns:xlink="http://www.w3.org/1999/xlink" x="0px" y="0px"
	 viewBox="0 0 100 100" enable-background="new 0 0 100 100" xml:space="preserve">
<g>
	<g>
		
			<radialGradient id="SVGID_1_" cx="1347.4668" cy="23.7543" r="65.6176" gradientTransform="matrix(-1 0 0 1 1385.1875 0)" gradientUnits="userSpaceOnUse">
			<stop  offset="0" style="stop-color:#BAD0D6"/>
			<stop  offset="0.198" style="stop-color:#9BBAC2"/>
			<stop  offset="1" style="stop-color:#5D8BB8"/>
		</radialGradient>
		<path fill="url(#SVGID_1_)" d="M47.6,16.5c12.4,0,22.9,8.6,25.7,20.2c2.3-1.1,4.8-1.7,7.5-1.7C90.3,35,98,42.7,98,52.2
			c0,9.5-7.7,17.2-17.2,17.2H47.6c-14.6,0-26.4-11.8-26.4-26.4C21.2,28.3,33,16.5,47.6,16.5z"/>
		
			<radialGradient id="SVGID_2_" cx="525.3962" cy="-2374.5017" r="7.6998" gradientTransform="matrix(0.8392 1.1536 1.6186 -1.3126 3440.2368 -3689.9971)" gradientUnits="userSpaceOnUse">
			<stop  offset="0" style="stop-color:#FFFFFF"/>
			<stop  offset="1" style="stop-color:#FFFFFF;stop-opacity:0"/>
		</radialGradient>
		<path opacity="0.5" fill="url(#SVGID_2_)" d="M44.2,41.8c6.9-5.6,9.6-14.1,6-19c-3.6-4.9-12-4.4-18.9,1.2c-6.9,5.6-9.6,14.1-6,19
			C28.9,47.9,37.4,47.3,44.2,41.8z"/>
		
			<radialGradient id="SVGID_3_" cx="548.1275" cy="-2363.0955" r="4.232" gradientTransform="matrix(0.8392 1.1536 1.6186 -1.3126 3440.2368 -3689.9971)" gradientUnits="userSpaceOnUse">
			<stop  offset="0" style="stop-color:#FFFFFF"/>
			<stop  offset="1" style="stop-color:#FFFFFF;stop-opacity:0"/>
		</radialGradient>
		<path opacity="0.3" fill="url(#SVGID_3_)" d="M78.9,49c3.8-3.1,5.3-7.7,3.3-10.4c-2-2.7-6.6-2.4-10.4,0.7
			c-3.8,3.1-5.3,7.7-3.3,10.4C70.4,52.4,75.1,52.1,78.9,49z"/>
		
			<radialGradient id="SVGID_4_" cx="1466.1648" cy="90.0494" r="4.4248" gradientTransform="matrix(-0.7056 -0.4583 -1.3993 1.8312 1249.9156 566.7275)" gradientUnits="userSpaceOnUse">
			<stop  offset="0" style="stop-color:#FFFFFF"/>
			<stop  offset="1" style="stop-color:#FFFFFF;stop-opacity:0"/>
		</radialGradient>
		<path opacity="0.2" fill="url(#SVGID_4_)" d="M87.3,55.7c4.2-4.2,8.5-5.9,9.6-3.7c1.1,2.2-1.3,7.3-5.5,11.6
			c-4.2,4.2-8.5,5.9-9.6,3.7C80.7,65.1,83.1,59.9,87.3,55.7z"/>
	</g>
	<g>
		
			<radialGradient id="SVGID_5_" cx="1366.5747" cy="38.043" r="65.6167" gradientTransform="matrix(-1 0 0 1 1385.1875 0)" gradientUnits="userSpaceOnUse">
			<stop  offset="0" style="stop-color:#FFFFFF"/>
			<stop  offset="0.198" style="stop-color:#D9F7FF"/>
			<stop  offset="1" style="stop-color:#89C0F5"/>
		</radialGradient>
		<path fill="url(#SVGID_5_)" d="M28.5,30.8c12.4,0,22.9,8.6,25.7,20.2c2.3-1.1,4.8-1.7,7.5-1.7c9.5,0,17.2,7.7,17.2,17.2
			s-7.7,17.2-17.2,17.2H28.5c-14.6,0-26.4-11.8-26.4-26.4S13.9,30.8,28.5,30.8z"/>
		
			<radialGradient id="SVGID_6_" cx="524.7386" cy="-2385.9653" r="7.6996" gradientTransform="matrix(0.8392 1.1536 1.6186 -1.3126 3440.2368 -3689.9971)" gradientUnits="userSpaceOnUse">
			<stop  offset="0" style="stop-color:#FFFFFF"/>
			<stop  offset="1" style="stop-color:#FFFFFF;stop-opacity:0"/>
		</radialGradient>
		<path fill="url(#SVGID_6_)" d="M25.1,56c6.9-5.6,9.6-14.1,6-19c-3.6-4.9-12-4.4-18.9,1.2c-6.9,5.6-9.6,14.1-6,19
			C9.8,62.2,18.3,61.6,25.1,56z"/>
		
			<radialGradient id="SVGID_7_" cx="547.47" cy="-2374.5586" r="4.2314" gradientTransform="matrix(0.8392 1.1536 1.6186 -1.3126 3440.2368 -3689.9971)" gradientUnits="userSpaceOnUse">
			<stop  offset="0" style="stop-color:#FFFFFF"/>
			<stop  offset="1" style="stop-color:#FFFFFF;stop-opacity:0"/>
		</radialGradient>
		<path opacity="0.4" fill="url(#SVGID_7_)" d="M59.8,63.3c3.8-3.1,5.3-7.7,3.3-10.4c-2-2.7-6.6-2.4-10.4,0.7
			c-3.8,3.1-5.3,7.7-3.3,10.4C51.3,66.7,56,66.4,59.8,63.3z"/>
		
			<radialGradient id="SVGID_8_" cx="1485.4578" cy="112.2423" r="4.4248" gradientTransform="matrix(-0.7056 -0.4583 -1.3993 1.8312 1275.4757 549.2186)" gradientUnits="userSpaceOnUse">
			<stop  offset="0" style="stop-color:#FFFFFF"/>
			<stop  offset="1" style="stop-color:#FFFFFF;stop-opacity:0"/>
		</radialGradient>
		<path opacity="0.2" fill="url(#SVGID_8_)" d="M68.2,70c4.2-4.2,8.5-5.9,9.6-3.7c1.1,2.2-1.3,7.3-5.5,11.6
			c-4.2,4.2-8.5,5.9-9.6,3.7C61.6,79.4,64,74.2,68.2,70z"/>
	</g>
</g>
</svg>
