<?xml version="1.0" encoding="utf-8"?>
<!-- Generator: Adobe Illustrator 24.1.1, SVG Export Plug-In . SVG Version: 6.00 Build 0)  -->
<svg version="1.1" id="Layer_1" xmlns="http://www.w3.org/2000/svg" xmlns:xlink="http://www.w3.org/1999/xlink" x="0px" y="0px"
	 viewBox="0 0 100 100" enable-background="new 0 0 100 100" xml:space="preserve">
<g>
	
		<radialGradient id="SVGID_1_" cx="1362.2637" cy="25.9215" r="81.3528" gradientTransform="matrix(-1 0 0 1 1385.1875 0)" gradientUnits="userSpaceOnUse">
		<stop  offset="0" style="stop-color:#FFFFFF"/>
		<stop  offset="0.198" style="stop-color:#D9F7FF"/>
		<stop  offset="1" style="stop-color:#89C0F5"/>
	</radialGradient>
	<path fill="url(#SVGID_1_)" d="M35.2,16.9c15.4,0,28.4,10.7,31.8,25c2.8-1.4,5.9-2.1,9.3-2.1c11.8,0,21.3,9.5,21.3,21.3
		c0,11.8-9.5,21.3-21.3,21.3H35.2c-18.1,0-32.8-14.7-32.8-32.8S17.1,16.9,35.2,16.9z"/>
	
		<radialGradient id="SVGID_2_" cx="521.2339" cy="-2381.4761" r="9.5464" gradientTransform="matrix(0.8392 1.1536 1.6186 -1.3126 3440.2368 -3689.9971)" gradientUnits="userSpaceOnUse">
		<stop  offset="0" style="stop-color:#FFFFFF"/>
		<stop  offset="1" style="stop-color:#FFFFFF;stop-opacity:0"/>
	</radialGradient>
	<path fill="url(#SVGID_2_)" d="M31,48.2c8.5-6.9,11.9-17.5,7.4-23.5C34,18.6,23.5,19.3,15,26.2C6.5,33.1,3.1,43.7,7.5,49.8
		C12,55.8,22.5,55.2,31,48.2z"/>
	
		<radialGradient id="SVGID_3_" cx="549.4166" cy="-2367.3345" r="5.2465" gradientTransform="matrix(0.8392 1.1536 1.6186 -1.3126 3440.2368 -3689.9971)" gradientUnits="userSpaceOnUse">
		<stop  offset="0" style="stop-color:#FFFFFF"/>
		<stop  offset="1" style="stop-color:#FFFFFF;stop-opacity:0"/>
	</radialGradient>
	<path opacity="0.4" fill="url(#SVGID_3_)" d="M73.9,57.2c4.7-3.8,6.5-9.6,4.1-12.9c-2.4-3.3-8.2-3-12.9,0.8
		c-4.7,3.8-6.5,9.6-4.1,12.9C63.5,61.4,69.3,61,73.9,57.2z"/>
	
		<radialGradient id="SVGID_4_" cx="1466.8958" cy="104.2501" r="5.4859" gradientTransform="matrix(-0.7056 -0.4583 -1.3993 1.8312 1267.8812 551.8279)" gradientUnits="userSpaceOnUse">
		<stop  offset="0" style="stop-color:#FFFFFF"/>
		<stop  offset="1" style="stop-color:#FFFFFF;stop-opacity:0"/>
	</radialGradient>
	<path opacity="0.2" fill="url(#SVGID_4_)" d="M84.3,65.5c5.2-5.2,10.5-7.3,11.9-4.6c1.4,2.7-1.6,9.1-6.8,14.3
		c-5.2,5.2-10.5,7.3-11.9,4.6C76.2,77.1,79.2,70.7,84.3,65.5z"/>
</g>
</svg>
