<?xml version="1.0" encoding="utf-8"?>
<!-- Generator: Adobe Illustrator 24.1.1, SVG Export Plug-In . SVG Version: 6.00 Build 0)  -->
<svg version="1.1" id="Layer_1" xmlns="http://www.w3.org/2000/svg" xmlns:xlink="http://www.w3.org/1999/xlink" x="0px" y="0px"
	 viewBox="0 0 100 100" enable-background="new 0 0 100 100" xml:space="preserve">
<g>
	<g>
		
			<radialGradient id="SVGID_1_" cx="-809.0004" cy="22.3973" r="40.1031" gradientTransform="matrix(1 0 0 1 891.3594 0)" gradientUnits="userSpaceOnUse">
			<stop  offset="0" style="stop-color:#FFFFFF"/>
			<stop  offset="0.198" style="stop-color:#D9F7FF"/>
			<stop  offset="1" style="stop-color:#89C0F5"/>
		</radialGradient>
		<path fill="url(#SVGID_1_)" d="M76.3,18c-7.6,0-14,5.3-15.7,12.3c-1.4-0.7-2.9-1.1-4.6-1.1c-5.8,0-10.5,4.7-10.5,10.5
			S50.2,50.3,56,50.3h20.3c8.9,0,16.2-7.2,16.2-16.2C92.5,25.2,85.2,18,76.3,18z"/>
		
			<radialGradient id="SVGID_2_" cx="1476.1714" cy="-1535.1632" r="4.706" gradientTransform="matrix(-0.8392 1.1536 -1.6186 -1.3126 -1163.6899 -3689.9971)" gradientUnits="userSpaceOnUse">
			<stop  offset="0" style="stop-color:#FFFFFF"/>
			<stop  offset="1" style="stop-color:#FFFFFF;stop-opacity:0"/>
		</radialGradient>
		<path fill="url(#SVGID_2_)" d="M78.4,33.4c-4.2-3.4-5.8-8.6-3.7-11.6c2.2-3,7.4-2.7,11.6,0.7c4.2,3.4,5.8,8.6,3.7,11.6
			C87.8,37.1,82.6,36.8,78.4,33.4z"/>
		
			<radialGradient id="SVGID_3_" cx="1490.0643" cy="-1528.1918" r="2.5865" gradientTransform="matrix(-0.8392 1.1536 -1.6186 -1.3126 -1163.6899 -3689.9971)" gradientUnits="userSpaceOnUse">
			<stop  offset="0" style="stop-color:#FFFFFF"/>
			<stop  offset="1" style="stop-color:#FFFFFF;stop-opacity:0"/>
		</radialGradient>
		<path opacity="0.4" fill="url(#SVGID_3_)" d="M57.2,37.8c-2.3-1.9-3.2-4.7-2-6.4c1.2-1.6,4-1.5,6.4,0.4c2.3,1.9,3.2,4.7,2,6.4
			C62.4,39.9,59.5,39.7,57.2,37.8z"/>
		
			<radialGradient id="SVGID_4_" cx="-993.5045" cy="-380.0461" r="2.7043" gradientTransform="matrix(0.7056 -0.4583 1.3993 1.8312 1283.6565 284.9024)" gradientUnits="userSpaceOnUse">
			<stop  offset="0" style="stop-color:#FFFFFF"/>
			<stop  offset="1" style="stop-color:#FFFFFF;stop-opacity:0"/>
		</radialGradient>
		<path opacity="0.2" fill="url(#SVGID_4_)" d="M52.1,41.9c-2.5-2.6-5.2-3.6-5.9-2.2c-0.7,1.3,0.8,4.5,3.3,7.1
			c2.5,2.6,5.2,3.6,5.9,2.2C56.1,47.6,54.6,44.5,52.1,41.9z"/>
	</g>
	<g>
		
			<radialGradient id="SVGID_5_" cx="1365.0259" cy="47.6355" r="49.7371" gradientTransform="matrix(-1 0 0 1 1385.1875 0)" gradientUnits="userSpaceOnUse">
			<stop  offset="0" style="stop-color:#FFFFFF"/>
			<stop  offset="0.198" style="stop-color:#D9F7FF"/>
			<stop  offset="1" style="stop-color:#89C0F5"/>
		</radialGradient>
		<path fill="url(#SVGID_5_)" d="M27.7,42.1c9.4,0,17.3,6.5,19.5,15.3c1.7-0.8,3.6-1.3,5.7-1.3c7.2,0,13,5.8,13,13
			c0,7.2-5.8,13-13,13H27.7c-11.1,0-20-9-20-20C7.6,51.1,16.6,42.1,27.7,42.1z"/>
		
			<radialGradient id="SVGID_6_" cx="529.4432" cy="-2387.4575" r="5.8366" gradientTransform="matrix(0.8392 1.1536 1.6186 -1.3126 3440.2368 -3689.9971)" gradientUnits="userSpaceOnUse">
			<stop  offset="0" style="stop-color:#FFFFFF"/>
			<stop  offset="1" style="stop-color:#FFFFFF;stop-opacity:0"/>
		</radialGradient>
		<path fill="url(#SVGID_6_)" d="M25.1,61.3c5.2-4.2,7.3-10.7,4.6-14.4c-2.7-3.7-9.1-3.3-14.3,0.9c-5.2,4.2-7.2,10.7-4.5,14.4
			C13.5,65.9,19.9,65.5,25.1,61.3z"/>
		
			<radialGradient id="SVGID_7_" cx="546.6741" cy="-2378.8118" r="3.2072" gradientTransform="matrix(0.8392 1.1536 1.6186 -1.3126 3440.2368 -3689.9971)" gradientUnits="userSpaceOnUse">
			<stop  offset="0" style="stop-color:#FFFFFF"/>
			<stop  offset="1" style="stop-color:#FFFFFF;stop-opacity:0"/>
		</radialGradient>
		<path opacity="0.4" fill="url(#SVGID_7_)" d="M51.4,66.8c2.9-2.3,4-5.9,2.5-7.9c-1.5-2-5-1.8-7.9,0.5c-2.9,2.3-4,5.9-2.5,7.9
			C45,69.3,48.5,69.1,51.4,66.8z"/>
		
			<radialGradient id="SVGID_8_" cx="1497.8956" cy="115.7092" r="3.3539" gradientTransform="matrix(-0.7056 -0.4583 -1.3993 1.8312 1278.1619 549.4824)" gradientUnits="userSpaceOnUse">
			<stop  offset="0" style="stop-color:#FFFFFF"/>
			<stop  offset="1" style="stop-color:#FFFFFF;stop-opacity:0"/>
		</radialGradient>
		<path opacity="0.2" fill="url(#SVGID_8_)" d="M57.7,71.8c3.2-3.2,6.4-4.4,7.3-2.8c0.9,1.6-1,5.6-4.1,8.8c-3.2,3.2-6.4,4.4-7.3,2.8
			C52.7,79,54.6,75,57.7,71.8z"/>
	</g>
</g>
</svg>
